<svg width="24" height="24" viewBox="0 0 24 24" fill="none" xmlns="http://www.w3.org/2000/svg">
<path d="M9.4725 19.8451H6.6225C5.36978 19.8568 4.15905 19.3939 3.23378 18.5493C2.3085 17.7047 1.73729 16.5412 1.635 15.2926C1.45874 12.4953 1.45874 9.6898 1.635 6.89258C1.733 5.72987 2.24479 4.64089 3.0774 3.82342C3.91 3.00595 5.00819 2.51423 6.1725 2.43758C10.046 2.19008 13.9314 2.19008 17.805 2.43758C18.9701 2.51402 20.0693 3.00547 20.9031 3.8228C21.7369 4.64013 22.2503 5.72923 22.35 6.89258C22.5525 9.68891 22.5525 12.4962 22.35 15.2926C22.2476 16.5425 21.6753 17.7071 20.7485 18.5519C19.8216 19.3967 18.609 19.8587 17.355 19.8451H14.61L9.4725 23.2501V19.8451Z" fill="#ED1C24"/>
<path d="M14.6775 16.2601H17.43C17.8148 16.2689 18.1892 16.1351 18.4814 15.8846C18.7735 15.634 18.9627 15.2842 19.0125 14.9026C19.1625 12.3098 19.1625 9.71044 19.0125 7.1176C18.9831 6.76848 18.8262 6.4424 18.5716 6.20167C18.3171 5.96095 17.9827 5.82244 17.6325 5.8126C13.8866 5.56377 10.1284 5.56377 6.38251 5.8126C6.03756 5.82959 5.71051 5.97128 5.46219 6.21132C5.21387 6.45136 5.06118 6.77342 5.03251 7.1176C4.83754 9.70844 4.82251 12.3097 4.98751 14.9026C5.02376 15.2885 5.20801 15.6455 5.50164 15.8985C5.79526 16.1516 6.17545 16.2812 6.56251 16.2601H9.42001V19.8751L14.6775 16.2601Z" fill="white"/>
</svg>
