<svg width="180" height="28" viewBox="0 0 180 28" fill="none" xmlns="http://www.w3.org/2000/svg">
<path d="M30.613 2.72909C31.7917 2.67483 32.1675 2.66277 35.17 2.66277C38.1725 2.66277 38.5483 2.67584 39.726 2.72909C40.6435 2.74766 41.5513 2.92127 42.411 3.24257C43.1448 3.52702 43.8113 3.96143 44.3677 4.51805C44.9242 5.07467 45.3584 5.74125 45.6426 6.4752C45.9642 7.3341 46.1382 8.24123 46.1571 9.15817C46.2114 10.3389 46.2234 10.7147 46.2234 13.7162C46.2234 16.7177 46.2103 17.0945 46.1571 18.2732C46.1387 19.1902 45.9647 20.0974 45.6426 20.9562C45.3592 21.6906 44.9253 22.3576 44.3687 22.9143C43.8122 23.4711 43.1453 23.9052 42.411 24.1888C41.5521 24.5104 40.645 24.6844 39.728 24.7033C38.5483 24.7576 38.1725 24.7696 35.17 24.7696C32.1675 24.7696 31.7917 24.7566 30.613 24.7033C29.696 24.6849 28.7888 24.5109 27.93 24.1888C27.1924 23.9114 26.5241 23.4766 25.9715 22.9147C25.4092 22.3627 24.974 21.6946 24.6964 20.9572C24.3756 20.0981 24.202 19.1911 24.1829 18.2742C24.1286 17.0935 24.1166 16.7177 24.1166 13.7162C24.1166 10.7147 24.1296 10.3379 24.1829 9.16018C24.2015 8.24264 24.3751 7.33484 24.6964 6.4752C24.9745 5.73777 25.41 5.0698 25.9725 4.51774C26.5242 3.95552 27.1919 3.52036 27.929 3.24257C28.7881 2.92184 29.6961 2.74825 30.613 2.72909ZM39.6366 4.71871C38.4709 4.66545 38.1213 4.6544 35.17 4.6544C32.2187 4.6544 31.869 4.66545 30.7034 4.71871C30.0023 4.72692 29.3079 4.85575 28.6505 5.09955C28.1705 5.27671 27.7362 5.55892 27.3793 5.92554C27.0126 6.28232 26.7304 6.71665 26.5533 7.19669C26.3095 7.85407 26.1807 8.54852 26.1725 9.24961C26.1192 10.4152 26.1082 10.7649 26.1082 13.7162C26.1082 16.6675 26.1192 17.0172 26.1725 18.1828C26.1807 18.8839 26.3095 19.5783 26.5533 20.2357C26.7305 20.7157 27.0127 21.15 27.3793 21.5069C27.7362 21.8735 28.1705 22.1557 28.6505 22.3328C29.3079 22.5766 30.0023 22.7055 30.7034 22.7137C31.869 22.7669 32.2177 22.778 35.17 22.778C38.1223 22.778 38.4709 22.7669 39.6366 22.7137C40.3377 22.7055 41.0321 22.5766 41.6895 22.3328C42.1663 22.1495 42.5994 21.8681 42.9606 21.5068C43.3219 21.1456 43.6033 20.7125 43.7866 20.2357C44.0304 19.5783 44.1593 18.8839 44.1675 18.1828C44.2207 17.0172 44.2318 16.6675 44.2318 13.7162C44.2318 10.7649 44.2207 10.4152 44.1675 9.24961C44.1593 8.54852 44.0304 7.85407 43.7866 7.19669C43.6095 6.71671 43.3273 6.2824 42.9606 5.92554C42.6038 5.55884 42.1695 5.27662 41.6895 5.09955C41.0321 4.85575 40.3377 4.72692 39.6366 4.71871ZM33.7632 17.1237C34.6017 17.4714 35.5389 17.4976 36.3956 17.1974C37.2522 16.8971 37.968 16.2915 38.406 15.4964C38.8439 14.7013 38.9733 13.7727 38.7692 12.8882C38.5652 12.0037 38.0421 11.2255 37.3002 10.7026C36.5582 10.1797 35.6494 9.94886 34.7478 10.0542C33.8462 10.1595 33.0152 10.5937 32.4137 11.2736C31.8122 11.9534 31.4827 12.8312 31.488 13.7389C31.4934 14.6466 31.8333 15.5205 32.4428 16.1932C32.8087 16.5971 33.2597 16.9149 33.7632 17.1237ZM31.1506 9.69677C32.0799 8.76738 33.3028 8.18897 34.6108 8.06008C35.9188 7.93118 37.2311 8.25978 38.324 8.98989C39.4169 9.72001 40.2229 10.8065 40.6046 12.0642C40.9863 13.3219 40.9201 14.673 40.4174 15.8874C39.9146 17.1018 39.0063 18.1043 37.8473 18.7241C36.6883 19.344 35.3503 19.5428 34.0611 19.2867C32.7719 19.0307 31.6114 18.3356 30.7773 17.3198C29.9432 16.3041 29.487 15.0305 29.4865 13.7162C29.4862 12.9698 29.6331 12.2306 29.9186 11.5409C30.2041 10.8512 30.6227 10.2246 31.1506 9.69677ZM42.1095 8.87882C42.3363 8.66502 42.4817 8.37904 42.5208 8.06984C42.5599 7.76063 42.4903 7.44745 42.3239 7.18392C42.1575 6.9204 41.9047 6.72293 41.6087 6.62532C41.3127 6.52772 40.992 6.53606 40.7015 6.64892C40.4109 6.76178 40.1687 6.97213 40.0162 7.24395C39.8637 7.51577 39.8105 7.83215 39.8656 8.1389C39.9208 8.44565 40.0808 8.72369 40.3184 8.92541C40.556 9.12712 40.8563 9.23995 41.168 9.24458C41.5175 9.24978 41.8552 9.11857 42.1095 8.87882Z" fill="white" fill-opacity="0.6"/>
<path d="M75.5993 12.0959L83.2822 3.1652H81.4616L74.7906 10.9196L69.4625 3.1652H63.3171L71.3743 14.8912L63.3171 24.2564H65.1378L72.1826 16.0675L77.8094 24.2564H83.9548L75.5989 12.0959H75.5993ZM73.1057 14.9945L72.2893 13.8268L65.7938 4.53579H68.5903L73.8322 12.034L74.6486 13.2016L81.4624 22.9481H78.666L73.1057 14.9949V14.9945Z" fill="white" fill-opacity="0.6"/>
<g opacity="0.6">
<path d="M113.127 3.66763H110.112C108.78 3.66763 107.502 4.19697 106.56 5.13921C105.617 6.08144 105.088 7.35939 105.088 8.69191V11.7065H102.073V15.7259H105.088V23.7648H109.107V15.7259H112.122L113.127 11.7065H109.107V8.69191C109.107 8.42541 109.213 8.16982 109.402 7.98137C109.59 7.79292 109.846 7.68706 110.112 7.68706H113.127V3.66763Z" stroke="white" stroke-width="2" stroke-linecap="round" stroke-linejoin="round"/>
</g>
<g opacity="0.6">
<mask id="mask0_1_403" style="mask-type:luminance" maskUnits="userSpaceOnUse" x="128" y="0" width="30" height="28">
<path d="M157.354 0.474654L129.434 0L128.975 26.9502L156.896 27.4249L157.354 0.474654Z" fill="white"/>
</mask>
<g mask="url(#mask0_1_403)">
<path d="M137.69 9.59913H133.577C133.49 9.59913 133.406 9.63395 133.344 9.69595C133.282 9.75796 133.247 9.84205 133.247 9.92974V23.1451C133.247 23.2328 133.282 23.3169 133.344 23.3789C133.406 23.4409 133.49 23.4758 133.577 23.4758H137.69C137.734 23.4758 137.777 23.4672 137.817 23.4506C137.857 23.434 137.893 23.4096 137.924 23.3789C137.955 23.3482 137.979 23.3118 137.996 23.2716C138.012 23.2315 138.021 23.1886 138.021 23.1451V9.92974C138.021 9.88633 138.012 9.84335 137.996 9.80323C137.979 9.76312 137.955 9.72666 137.924 9.69595C137.893 9.66525 137.857 9.64089 137.817 9.62428C137.777 9.60766 137.734 9.59913 137.69 9.59913Z" stroke="white" stroke-width="1.99992" stroke-linecap="round" stroke-linejoin="round"/>
<path d="M135.634 3.02978C135.098 3.02978 134.573 3.1889 134.127 3.48702C133.681 3.78514 133.333 4.20887 133.128 4.70463C132.923 5.20039 132.869 5.7459 132.974 6.2722C133.078 6.79849 133.337 7.28192 133.716 7.66135C134.095 8.04079 134.579 8.29919 135.105 8.40388C135.631 8.50856 136.177 8.45483 136.673 8.24948C137.169 8.04413 137.592 7.69639 137.89 7.25022C138.188 6.80405 138.348 6.2795 138.348 5.74289C138.348 5.02333 138.062 4.33324 137.553 3.82443C137.044 3.31563 136.354 3.02978 135.634 3.02978Z" stroke="white" stroke-width="1.99992" stroke-linecap="round" stroke-linejoin="round"/>
<path d="M149.081 9.27047C148.406 9.25635 147.735 9.38412 147.111 9.6455C146.488 9.90689 145.927 10.2961 145.464 10.788V9.92973C145.464 9.84204 145.429 9.75795 145.367 9.69594C145.305 9.63393 145.221 9.5991 145.133 9.5991H141.194C141.106 9.5991 141.022 9.63393 140.96 9.69594C140.898 9.75795 140.863 9.84204 140.863 9.92973V23.1451C140.863 23.2328 140.898 23.3169 140.96 23.3789C141.022 23.4409 141.106 23.4757 141.194 23.4757H145.298C145.385 23.4757 145.47 23.4409 145.532 23.3789C145.594 23.3169 145.628 23.2328 145.628 23.1451V16.6068C145.628 14.4039 146.231 13.5446 147.763 13.5446C149.435 13.5446 149.571 14.9204 149.571 16.7193V23.1441C149.571 23.1875 149.58 23.2305 149.597 23.2706C149.613 23.3108 149.638 23.3472 149.668 23.3779C149.699 23.4086 149.735 23.4329 149.776 23.4496C149.816 23.4662 149.859 23.4747 149.902 23.4747H154.008C154.051 23.4747 154.094 23.4662 154.134 23.4496C154.174 23.4329 154.211 23.4086 154.242 23.3779C154.272 23.3472 154.297 23.3108 154.313 23.2706C154.33 23.2305 154.338 23.1875 154.338 23.1441V15.8952C154.338 12.619 153.713 9.27047 149.081 9.27047Z" stroke="white" stroke-width="1.99992" stroke-linecap="round" stroke-linejoin="round"/>
</g>
</g>
</svg>
