<svg width="177" height="100" viewBox="0 0 177 100" fill="none" xmlns="http://www.w3.org/2000/svg">
<g clip-path="url(#clip0_1_238)">
<g clip-path="url(#clip1_1_238)">
<g clip-path="url(#clip2_1_238)">
<path d="M21.5715 42.8207C19.9937 38.5847 15.8306 35.522 11.1238 35.6214C5.04483 35.6214 0.0331461 40.2155 0 46.6259C0.0331461 53.0496 5.04483 57.6437 11.1238 57.6437C15.8306 57.7365 19.9871 54.6804 21.5715 50.451C21.6444 50.272 21.5118 50.0731 21.3129 50.0731H18.2834C18.1839 50.0731 18.0845 50.1261 18.0381 50.2256C16.7388 52.7778 14.1335 54.581 11.1172 54.5942C6.50326 54.5942 3.29472 50.9283 3.34775 46.6193C3.30135 42.3235 6.50989 38.6642 11.1172 38.6642C14.1269 38.6775 16.7454 40.4806 18.0447 43.0527C18.0911 43.1456 18.1839 43.2052 18.29 43.2052H21.3063C21.5052 43.2052 21.6378 43.0063 21.5648 42.8274M37.7666 48.913C37.7666 52.1348 35.8906 54.6207 32.3506 54.6207C28.8106 54.6207 26.9345 52.1348 26.9345 48.913C26.9345 45.6912 28.8238 43.2052 32.3506 43.2052C35.8773 43.2052 37.7666 45.6912 37.7666 48.913ZM41.0547 48.913C41.0547 44.1665 37.5545 40.1757 32.3439 40.1757C27.1334 40.1757 23.6331 44.1598 23.6331 48.913C23.6331 53.6661 27.14 57.6503 32.3506 57.6503C37.5611 57.6503 41.0547 53.6661 41.0547 48.913ZM42.4933 43.477H45.4499V40.5138C45.4499 40.5138 45.4234 40.4541 45.3902 40.4541H42.4999C42.4999 40.4541 42.4402 40.4872 42.4402 40.5138V43.4174C42.4402 43.4174 42.4667 43.477 42.4999 43.477M48.7446 54.3423V43.477H45.4499V54.3423H42.6126C42.4402 54.3423 42.301 54.4815 42.301 54.6671V57.0603C42.301 57.2326 42.4402 57.3851 42.6126 57.3851H52.2647C52.4371 57.3851 52.5763 57.2459 52.5763 57.0603V54.6671C52.5763 54.4948 52.4371 54.3423 52.2647 54.3423H48.7446ZM58.0785 46.1817V43.0063C58.0785 41.601 56.9383 40.4541 55.5329 40.4541H48.7446V43.4836H55.049V46.1884C55.049 46.3607 55.1882 46.5132 55.3738 46.5132H57.7537C57.9261 46.5132 58.0653 46.3607 58.0785 46.1884M74.0947 47.3286H63.6007C64.1244 44.9089 65.9209 43.1986 68.851 43.1986C71.7811 43.1986 73.571 44.9156 74.0947 47.3286ZM77.5021 49.9803C77.5419 49.6289 77.5618 49.271 77.5618 48.913C77.5618 44.1665 74.0616 40.1757 68.851 40.1757C63.6404 40.1757 60.1402 44.1598 60.1402 48.913C60.1402 53.6661 63.6404 57.6569 68.851 57.6569C72.4043 57.6569 75.162 55.8007 76.5608 53.1026C76.6536 52.9237 76.521 52.7049 76.3155 52.7049H73.2395C73.16 52.7049 73.0738 52.7447 73.0274 52.8043C72.1126 53.9313 70.7072 54.6274 68.8444 54.6274C65.8016 54.6274 63.9852 52.7844 63.5344 50.2256H77.2237C77.3563 50.2256 77.4756 50.1261 77.4889 49.9803M97.297 54.8262V51.6508C97.297 51.4785 97.1577 51.326 96.9854 51.326H94.6055C94.4331 51.326 94.2939 51.4652 94.2939 51.6508V54.3556H86.0936V38.3924H89.4413C89.6137 38.3924 89.7529 38.2532 89.7529 38.0676V35.6877C89.7529 35.5153 89.6137 35.3761 89.4413 35.3761H79.3782C79.2058 35.3761 79.0534 35.5153 79.0534 35.6877V38.0808C79.0534 38.2598 79.1926 38.4057 79.3782 38.4057H82.726V54.3688H79.2456C79.0733 54.3688 78.9208 54.508 78.9208 54.6937V57.0868C78.9208 57.2592 79.06 57.4116 79.2456 57.4116H94.758C96.1634 57.3984 97.3036 56.2449 97.3036 54.8395M113.452 48.9329C113.452 52.1547 111.576 54.6406 108.036 54.6406C104.496 54.6406 102.62 52.1547 102.62 48.9329C102.62 45.7111 104.496 43.2251 108.036 43.2251C111.576 43.2251 113.452 45.7044 113.452 48.9329ZM116.747 48.9329C116.747 44.1863 113.247 40.1956 108.036 40.1956C102.826 40.1956 99.3255 44.1797 99.3255 48.9329C99.3255 53.686 102.826 57.6702 108.036 57.6702C113.247 57.6702 116.747 53.686 116.747 48.9329ZM132.823 64.9557V61.9261H122.879V59.2214C122.879 59.049 122.74 58.8966 122.568 58.8966H120.188C120.015 58.8966 119.876 59.0358 119.876 59.2214V62.3968C119.876 63.8088 121.016 64.949 122.422 64.949H132.83L132.823 64.9557ZM132.823 48.9329C132.823 52.1547 130.947 54.6406 127.407 54.6406C123.867 54.6406 121.991 52.1547 121.991 48.9329C121.991 45.7111 123.867 43.2251 127.407 43.2251C130.947 43.2251 132.823 45.7111 132.823 48.9329ZM139.2 43.1787V40.7856C139.2 40.6132 139.061 40.4607 138.875 40.4607H135.707C134.301 40.4607 133.161 41.601 133.161 43.013V43.3908C132.014 41.4419 130.059 40.1823 127.122 40.1823C121.918 40.1823 118.683 44.1665 118.683 48.9196C118.683 53.6728 121.911 57.6635 127.128 57.6635C129.787 57.6635 131.643 56.6228 132.823 54.9721V61.9195H136.118V43.4903H138.882C139.054 43.4903 139.194 43.3378 139.194 43.1654M149.621 37.292C149.621 36.0722 148.766 35.0911 147.427 35.0911C146.088 35.0911 145.233 36.0722 145.233 37.292C145.233 38.5117 146.088 39.4929 147.427 39.4929C148.766 39.4929 149.621 38.5117 149.621 37.292ZM152.909 57.0603V54.6671C152.909 54.4948 152.77 54.3423 152.598 54.3423H149.078V43.0063C149.078 41.601 147.938 40.4541 146.532 40.4541H142.535C142.362 40.4541 142.223 40.5933 142.223 40.7789V43.1721C142.223 43.3444 142.362 43.4969 142.535 43.4969H145.783V54.3622H142.263C142.091 54.3622 141.938 54.5014 141.938 54.687V57.0802C141.938 57.2525 142.077 57.405 142.263 57.405H152.604C152.777 57.3984 152.916 57.2525 152.916 57.0735M170.908 46.1685C169.867 42.7345 166.89 40.1956 162.741 40.1956C157.537 40.1956 154.03 44.1797 154.03 48.9329C154.03 53.686 157.53 57.6768 162.741 57.6768C166.89 57.6768 169.874 55.1378 170.908 51.7039C170.961 51.5315 170.828 51.3525 170.643 51.3525H167.825C167.706 51.3525 167.606 51.4254 167.567 51.5315C166.844 53.401 165.24 54.6539 162.734 54.6539C159.194 54.6539 157.318 52.1679 157.318 48.9461C157.318 45.7243 159.194 43.2384 162.734 43.2384C165.233 43.2384 166.844 44.4913 167.567 46.3607C167.606 46.4734 167.706 46.5397 167.819 46.5397H170.636C170.835 46.5331 170.961 46.3541 170.914 46.1751M175.382 42.655C175.382 42.8406 175.25 42.9599 174.998 42.9599H174.534V42.3434H174.998C175.237 42.3434 175.382 42.4561 175.382 42.6484M176.006 44.1002L175.449 43.298C175.74 43.1986 175.939 42.9666 175.939 42.6086C175.939 42.1048 175.561 41.8728 175.044 41.8728H174.004V44.1068H174.541V43.3975H174.885L175.363 44.1068H176.006V44.1002ZM176.768 43.0329C176.768 44.0803 175.939 44.9487 174.879 44.9487C173.818 44.9487 172.983 44.0869 172.983 43.0461V43.0329C172.983 41.9854 173.811 41.117 174.879 41.117C175.946 41.117 176.768 41.9788 176.768 43.0262V43.0329ZM177.013 43.0329V43.0196C177.013 41.8462 176.079 40.8784 174.885 40.8784C173.692 40.8784 172.757 41.8595 172.757 43.0329V43.0461C172.757 44.2195 173.692 45.1874 174.885 45.1874C176.079 45.1874 177.013 44.2062 177.013 43.0329Z" fill="#EF4400"/>
</g>
</g>
</g>
<defs>
<clipPath id="clip0_1_238">
<rect width="177" height="100" fill="white"/>
</clipPath>
<clipPath id="clip1_1_238">
<rect width="177" height="100" fill="white"/>
</clipPath>
<clipPath id="clip2_1_238">
<rect width="177" height="99.4382" fill="white" transform="translate(0 0.281006)"/>
</clipPath>
</defs>
</svg>
