<svg width="108" height="33" viewBox="0 0 108 33" fill="none" xmlns="http://www.w3.org/2000/svg">
<g clip-path="url(#clip0_1_121)">
<g clip-path="url(#clip1_1_121)">
<g clip-path="url(#clip2_1_121)">
<mask id="mask0_1_121" style="mask-type:luminance" maskUnits="userSpaceOnUse" x="0" y="0" width="108" height="33">
<path d="M107.986 0H0.0137151V32.2999H107.986V0Z" fill="white"/>
</mask>
<g mask="url(#mask0_1_121)">
<mask id="mask1_1_121" style="mask-type:luminance" maskUnits="userSpaceOnUse" x="0" y="0" width="108" height="33">
<path d="M107.986 0H0.0137151V32.2999H107.986V0Z" fill="white"/>
</mask>
<g mask="url(#mask1_1_121)">
<path d="M103.897 31.9787H3.96452C2.90546 31.9755 1.89069 31.5534 1.14183 30.8045C0.392961 30.0557 -0.0291498 29.0409 -0.0323175 27.9818L-0.0323175 3.99784C-0.0294137 2.93861 0.392581 1.92358 1.14148 1.1745C1.89037 0.425418 2.90529 0.00316895 3.96452 0L103.896 0C104.956 0.00316895 105.971 0.425418 106.719 1.1745C107.468 1.92358 107.89 2.93861 107.893 3.99784V27.9818C107.89 29.0411 107.468 30.0561 106.719 30.8052C105.971 31.5543 104.956 31.9765 103.896 31.9797" fill="black"/>
<path d="M103.897 0.639454C104.788 0.640513 105.641 0.994714 106.271 1.62433C106.9 2.25395 107.254 3.10755 107.255 3.99784V27.9818C107.254 28.8721 106.9 29.7257 106.271 30.3553C105.641 30.985 104.788 31.3392 103.897 31.3402H3.96452C3.07424 31.3392 2.22074 30.985 1.59131 30.3553C0.961877 29.7257 0.607931 28.8721 0.607136 27.9818V3.99784C0.607931 3.10755 0.961877 2.25395 1.59131 1.62433C2.22074 0.994714 3.07424 0.640513 3.96452 0.639454H103.897ZM103.897 0H3.96452C2.90529 0.00316895 1.89037 0.425418 1.14148 1.1745C0.392581 1.92358 -0.0294137 2.93861 -0.0323175 3.99784L-0.0323175 27.9818C-0.0294137 29.0411 0.392581 30.0561 1.14148 30.8052C1.89037 31.5543 2.90529 31.9765 3.96452 31.9797H103.896C104.956 31.9765 105.971 31.5543 106.719 30.8052C107.468 30.0561 107.89 29.0411 107.893 27.9818V3.99784C107.89 2.93878 107.468 1.92391 106.72 1.17485C105.971 0.425798 104.956 0.0034328 103.897 0Z" fill="#A6A6A6"/>
<path d="M37.8786 8.19086C37.8924 8.48452 37.8463 8.77793 37.7431 9.0532C37.6399 9.32847 37.4817 9.57984 37.2782 9.792C37.0509 10.0276 36.7765 10.2126 36.4728 10.3349C36.1691 10.4572 35.8431 10.5139 35.5159 10.5015C35.1464 10.4989 34.7819 10.4145 34.4489 10.2542C34.1159 10.094 33.8225 9.86199 33.5898 9.57485C33.3571 9.28771 33.1909 8.95258 33.1032 8.59356C33.0155 8.23454 33.0084 7.86055 33.0825 7.49846C33.1565 7.13638 33.3099 6.7952 33.5315 6.49945C33.7532 6.20371 34.0376 5.96074 34.3643 5.78802C34.691 5.6153 35.052 5.51712 35.4212 5.50053C35.7904 5.48394 36.1587 5.54936 36.4996 5.69209C36.7885 5.80941 37.0456 5.99317 37.2502 6.22847L36.8279 6.65077C36.6672 6.46166 36.4653 6.31197 36.2377 6.21324C36.01 6.11452 35.7628 6.0694 35.5149 6.08136C35.2654 6.08001 35.0181 6.12906 34.788 6.22557C34.5579 6.32208 34.3497 6.46408 34.1757 6.64303C34.0018 6.82199 33.8659 7.03422 33.776 7.267C33.6861 7.49979 33.6441 7.74833 33.6526 7.99772C33.6469 8.37109 33.7522 8.73774 33.9551 9.05123C34.1579 9.36472 34.4493 9.61095 34.7922 9.75873C35.1351 9.90651 35.5142 9.94918 35.8814 9.88135C36.2486 9.81352 36.5874 9.63824 36.8549 9.3777C37.101 9.11262 37.2432 8.76756 37.2552 8.40601H35.5139V7.8246H37.8386C37.8606 7.94411 37.872 8.06534 37.8726 8.18686" fill="white"/>
<path d="M37.8786 8.19086C37.8924 8.48452 37.8463 8.77793 37.7431 9.0532C37.6399 9.32847 37.4817 9.57984 37.2782 9.792C37.0509 10.0276 36.7765 10.2126 36.4728 10.3349C36.1691 10.4572 35.8431 10.5139 35.5159 10.5015C35.1464 10.4989 34.7819 10.4145 34.4489 10.2542C34.1159 10.094 33.8225 9.86199 33.5898 9.57485C33.3571 9.28771 33.1909 8.95258 33.1032 8.59356C33.0155 8.23454 33.0084 7.86055 33.0825 7.49846C33.1565 7.13638 33.3099 6.7952 33.5315 6.49945C33.7532 6.20371 34.0376 5.96074 34.3643 5.78802C34.691 5.6153 35.052 5.51712 35.4212 5.50053C35.7904 5.48394 36.1587 5.54936 36.4996 5.69209C36.7885 5.80941 37.0456 5.99317 37.2502 6.22847L36.8279 6.65077C36.6672 6.46166 36.4653 6.31197 36.2377 6.21324C36.01 6.11452 35.7628 6.0694 35.5149 6.08136C35.2654 6.08001 35.0181 6.12906 34.788 6.22557C34.5579 6.32208 34.3497 6.46408 34.1757 6.64303C34.0018 6.82199 33.8659 7.03422 33.776 7.267C33.6861 7.49979 33.6441 7.74833 33.6526 7.99772C33.6469 8.37109 33.7522 8.73774 33.9551 9.05123C34.1579 9.36472 34.4493 9.61095 34.7922 9.75873C35.1351 9.90651 35.5142 9.94918 35.8814 9.88135C36.2486 9.81352 36.5874 9.63824 36.8549 9.3777C37.101 9.11262 37.2432 8.76756 37.2552 8.40601H35.5139V7.8246H37.8386C37.8628 7.94524 37.8762 8.06782 37.8786 8.19086Z" stroke="white" stroke-width="0.199957"/>
<path d="M41.5612 6.18542H39.3777V7.7065H41.3471V8.28291H39.3777V9.79898H41.5612V10.3894H38.7592V5.596H41.5612V6.18542Z" fill="white"/>
<path d="M41.5612 6.18542H39.3777V7.7065H41.3471V8.28291H39.3777V9.79898H41.5612V10.3894H38.7592V5.596H41.5612V6.18542Z" stroke="white" stroke-width="0.199957"/>
<path d="M44.161 10.3934H43.5466V6.18542H42.2056V5.596H45.503V6.18542H44.162L44.161 10.3934Z" fill="white"/>
<path d="M44.161 10.3934H43.5466V6.18542H42.2056V5.596H45.503V6.18542H44.162L44.161 10.3934Z" stroke="white" stroke-width="0.199957"/>
<path d="M48.5021 5.59698H47.8857V10.3944H48.5021V5.59698Z" fill="white"/>
<path d="M48.5021 5.59698H47.8857V10.3944H48.5021V5.59698Z" stroke="white" stroke-width="0.199957"/>
<path d="M51.2361 10.3934H50.6216V6.18542H49.2807V5.596H52.578V6.18542H51.2371L51.2361 10.3934Z" fill="white"/>
<path d="M51.2361 10.3934H50.6216V6.18542H49.2807V5.596H52.578V6.18542H51.2371L51.2361 10.3934Z" stroke="white" stroke-width="0.199957"/>
<path d="M58.8154 9.77289C58.3488 10.2387 57.7165 10.5003 57.0572 10.5003C56.3979 10.5003 55.7655 10.2387 55.2989 9.77289C55.0679 9.53905 54.8863 9.2611 54.7649 8.95559C54.6435 8.65009 54.5849 8.32328 54.5924 7.99463C54.5849 7.66584 54.6436 7.33889 54.7649 7.03322C54.8863 6.72756 55.0679 6.44943 55.2989 6.21537C55.5295 5.98447 55.8034 5.8013 56.1048 5.67632C56.4062 5.55134 56.7294 5.48701 57.0557 5.48701C57.382 5.48701 57.7051 5.55134 58.0066 5.67632C58.308 5.8013 58.5818 5.98447 58.8124 6.21537C59.0436 6.44867 59.2255 6.72604 59.3473 7.03099C59.4692 7.33595 59.5286 7.66228 59.5219 7.99063C59.5293 8.31924 59.4705 8.64599 59.3492 8.95146C59.2278 9.25694 59.0463 9.53491 58.8154 9.76889M55.7513 9.3686C56.0969 9.71253 56.5646 9.9056 57.0522 9.9056C57.5398 9.9056 58.0075 9.71253 58.3531 9.3686C58.5303 9.18714 58.6689 8.97168 58.7606 8.73519C58.8522 8.49871 58.8951 8.24611 58.8865 7.99263C58.8951 7.73914 58.8523 7.48652 58.7607 7.25003C58.669 7.01354 58.5303 6.79808 58.3531 6.61665C58.0075 6.27273 57.5398 6.07966 57.0522 6.07966C56.5646 6.07966 56.0969 6.27273 55.7513 6.61665C55.5743 6.79827 55.436 7.01378 55.3445 7.25025C55.253 7.48671 55.2103 7.73923 55.2189 7.99263C55.2103 8.24602 55.2531 8.49853 55.3446 8.73498C55.436 8.97144 55.5744 9.18696 55.7513 9.3686Z" fill="white"/>
<path d="M58.8154 9.77289C58.3488 10.2387 57.7165 10.5003 57.0572 10.5003C56.3979 10.5003 55.7655 10.2387 55.2989 9.77289C55.0679 9.53905 54.8863 9.2611 54.7649 8.95559C54.6435 8.65009 54.5849 8.32328 54.5924 7.99463C54.5849 7.66584 54.6436 7.33889 54.7649 7.03322C54.8863 6.72756 55.0679 6.44943 55.2989 6.21537C55.5295 5.98447 55.8034 5.8013 56.1048 5.67632C56.4062 5.55134 56.7294 5.48701 57.0557 5.48701C57.382 5.48701 57.7051 5.55134 58.0066 5.67632C58.308 5.8013 58.5818 5.98447 58.8124 6.21537C59.0436 6.44867 59.2255 6.72604 59.3473 7.03099C59.4692 7.33595 59.5286 7.66228 59.5219 7.99063C59.5293 8.31924 59.4705 8.64599 59.3492 8.95146C59.2278 9.25694 59.0463 9.53491 58.8154 9.76889V9.77289ZM55.7513 9.37261C56.0969 9.71653 56.5646 9.9096 57.0522 9.9096C57.5398 9.9096 58.0075 9.71653 58.3531 9.37261C58.5303 9.19115 58.6689 8.97568 58.7606 8.7392C58.8522 8.50271 58.8951 8.25011 58.8865 7.99663C58.8951 7.74314 58.8523 7.49053 58.7607 7.25404C58.669 7.01754 58.5303 6.80208 58.3531 6.62066C58.0075 6.27673 57.5398 6.08366 57.0522 6.08366C56.5646 6.08366 56.0969 6.27673 55.7513 6.62066C55.5743 6.80227 55.436 7.01779 55.3445 7.25425C55.253 7.49071 55.2103 7.74323 55.2189 7.99663C55.2103 8.25002 55.2531 8.50253 55.3446 8.73898C55.436 8.97544 55.5744 9.19096 55.7513 9.37261Z" stroke="white" stroke-width="0.199957"/>
<path d="M60.3876 10.3934V5.596H61.1381L63.4697 9.32765H63.4958L63.4697 8.40299V5.596H64.0842V10.3934H63.4417L61.003 6.48163H60.977L61.003 7.40629V10.3934H60.3876Z" fill="white"/>
<path d="M60.3876 10.3934V5.596H61.1381L63.4697 9.32765H63.4958L63.4697 8.40299V5.596H64.0842V10.3934H63.4417L61.003 6.48163H60.977L61.003 7.40629V10.3934H60.3876Z" stroke="white" stroke-width="0.199957"/>
<path d="M54.4383 17.3893C53.7658 17.3913 53.109 17.5925 52.5508 17.9676C51.9926 18.3427 51.558 18.8747 51.3021 19.4966C51.0461 20.1185 50.9801 20.8023 51.1125 21.4616C51.2449 22.121 51.5698 22.7263 52.046 23.2011C52.5222 23.676 53.1285 23.999 53.7882 24.1295C54.448 24.26 55.1316 24.192 55.7527 23.9342C56.3738 23.6764 56.9046 23.2403 57.278 22.681C57.6514 22.1217 57.8507 21.4643 57.8507 20.7918C57.8574 20.3423 57.7736 19.896 57.6043 19.4796C57.4351 19.0631 57.1838 18.6849 56.8654 18.3675C56.5471 18.0501 56.1682 17.7999 55.7512 17.6319C55.3343 17.4639 54.8878 17.3814 54.4383 17.3893ZM54.4383 22.8502C54.176 22.8441 53.9176 22.7856 53.6782 22.6781C53.4388 22.5706 53.2234 22.4163 53.0446 22.2243C52.8657 22.0324 52.7271 21.8065 52.6368 21.5602C52.5465 21.3138 52.5065 21.0518 52.519 20.7898C52.4989 20.5255 52.5337 20.26 52.621 20.0099C52.7084 19.7597 52.8465 19.5303 53.0266 19.336C53.2067 19.1417 53.4251 18.9867 53.6679 18.8807C53.9107 18.7747 54.1729 18.7199 54.4378 18.7199C54.7028 18.7199 54.9649 18.7747 55.2077 18.8807C55.4506 18.9867 55.6689 19.1417 55.849 19.336C56.0292 19.5303 56.1673 19.7597 56.2546 20.0099C56.342 20.26 56.3767 20.5255 56.3567 20.7898C56.3693 21.0518 56.3294 21.3137 56.2392 21.5601C56.1491 21.8064 56.0105 22.0323 55.8318 22.2243C55.653 22.4163 55.4376 22.5706 55.1983 22.6781C54.959 22.7856 54.7006 22.8441 54.4383 22.8502ZM46.994 17.3893C46.3216 17.3915 45.6648 17.5929 45.1068 17.9681C44.5487 18.3433 44.1143 18.8754 43.8585 19.4973C43.6027 20.1192 43.5368 20.803 43.6694 21.4623C43.8019 22.1215 44.1268 22.7268 44.6031 23.2015C45.0793 23.6762 45.6856 23.9992 46.3453 24.1296C47.005 24.26 47.6886 24.1919 48.3096 23.9341C48.9307 23.6763 49.4614 23.2402 49.8348 22.6809C50.2082 22.1216 50.4075 21.4642 50.4075 20.7918C50.4141 20.3422 50.3303 19.8958 50.161 19.4793C49.9916 19.0628 49.7403 18.6846 49.4218 18.3671C49.1034 18.0497 48.7243 17.7996 48.3073 17.6316C47.8902 17.4636 47.4436 17.3812 46.994 17.3893ZM46.994 22.8502C46.7318 22.844 46.4735 22.7854 46.2342 22.6778C45.995 22.5703 45.7797 22.416 45.6009 22.224C45.4222 22.032 45.2836 21.8062 45.1934 21.5599C45.1032 21.3136 45.0632 21.0518 45.0757 20.7898C45.0557 20.5255 45.0904 20.26 45.1778 20.0099C45.2651 19.7597 45.4032 19.5303 45.5833 19.336C45.7635 19.1417 45.9818 18.9867 46.2246 18.8807C46.4675 18.7747 46.7296 18.7199 46.9945 18.7199C47.2595 18.7199 47.5216 18.7747 47.7645 18.8807C48.0073 18.9867 48.2256 19.1417 48.4058 19.336C48.5859 19.5303 48.724 19.7597 48.8113 20.0099C48.8987 20.26 48.9334 20.5255 48.9134 20.7898C48.9259 21.0518 48.8858 21.3138 48.7956 21.5602C48.7053 21.8065 48.5667 22.0324 48.3878 22.2243C48.209 22.4163 47.9935 22.5706 47.7542 22.6781C47.5148 22.7856 47.2564 22.8441 46.994 22.8502ZM38.1378 18.4351V19.8771H41.5892C41.5401 20.553 41.2644 21.1926 40.8067 21.6924C40.4608 22.0449 40.0448 22.321 39.5856 22.5028C39.1264 22.6847 38.6342 22.7682 38.1408 22.7481C37.1229 22.7481 36.1468 22.3438 35.4271 21.6241C34.7074 20.9044 34.303 19.9282 34.303 18.9104C34.303 17.8926 34.7074 16.9165 35.4271 16.1967C36.1468 15.477 37.1229 15.0727 38.1408 15.0727C39.1099 15.0596 40.045 15.4297 40.7426 16.1024L41.7603 15.0857C41.2844 14.6144 40.7192 14.2429 40.0978 13.9929C39.4765 13.7428 38.8115 13.6194 38.1418 13.6297C37.4421 13.62 36.7475 13.7495 36.0983 14.0106C35.4491 14.2717 34.8583 14.6592 34.3601 15.1505C33.8619 15.6419 33.4664 16.2274 33.1964 16.8729C32.9264 17.5184 32.7873 18.2112 32.7873 18.9109C32.7873 19.6106 32.9264 20.3034 33.1964 20.9489C33.4664 21.5945 33.8619 22.1799 34.3601 22.6713C34.8583 23.1627 35.4491 23.5501 36.0983 23.8112C36.7475 24.0723 37.4421 24.2018 38.1418 24.1922C38.8253 24.2198 39.5069 24.1019 40.1415 23.8462C40.776 23.5905 41.349 23.2029 41.8224 22.7091C42.6639 21.7908 43.1125 20.5796 43.0723 19.3347C43.0755 19.0327 43.0494 18.7311 42.9942 18.4341L38.1378 18.4351ZM74.3635 19.5529C74.1592 18.9368 73.7703 18.3986 73.2494 18.0113C72.7286 17.6241 72.1012 17.4065 71.4524 17.3883C71.0157 17.3916 70.5842 17.4834 70.184 17.6582C69.7838 17.8329 69.4231 18.0869 69.1238 18.4049C68.8245 18.7229 68.5928 19.0983 68.4427 19.5084C68.2925 19.9184 68.227 20.3547 68.2501 20.7908C68.24 21.2379 68.3201 21.6825 68.4857 22.0979C68.6512 22.5134 68.8989 22.8912 69.2138 23.2088C69.5287 23.5264 69.9044 23.7773 70.3184 23.9464C70.7324 24.1155 71.1763 24.1995 71.6235 24.1932C72.1839 24.196 72.7363 24.0596 73.2309 23.7962C73.7256 23.5328 74.1471 23.1507 74.4575 22.6841L73.2987 21.9115C73.1248 22.2001 72.8788 22.4384 72.5849 22.6032C72.2911 22.7679 71.9594 22.8534 71.6225 22.8512C71.2763 22.8641 70.9342 22.7728 70.6404 22.5893C70.3466 22.4057 70.1146 22.1383 69.9743 21.8215L74.5206 19.9401L74.3635 19.5529ZM69.7212 20.6847C69.7054 20.437 69.7391 20.1887 69.8206 19.9543C69.902 19.7199 70.0294 19.5041 70.1953 19.3195C70.3612 19.135 70.5622 18.9854 70.7867 18.8796C71.0112 18.7738 71.2545 18.7138 71.5024 18.7033C71.7604 18.686 72.0178 18.7451 72.2424 18.8733C72.467 19.0014 72.6489 19.1929 72.7653 19.4238L69.7212 20.6847ZM66.0245 23.987H67.5186V13.9889H66.0245V23.987ZM63.5788 18.1519H63.5278C63.3008 17.9054 63.0239 17.7102 62.7156 17.5793C62.4072 17.4483 62.0744 17.3846 61.7395 17.3923C60.8371 17.3923 59.9717 17.7508 59.3336 18.3889C58.6956 19.027 58.3371 19.8924 58.3371 20.7948C58.3371 21.6971 58.6956 22.5625 59.3336 23.2006C59.9717 23.8387 60.8371 24.1972 61.7395 24.1972C62.0758 24.206 62.41 24.1414 62.7188 24.008C63.0276 23.8746 63.3037 23.6755 63.5278 23.4246H63.5788V23.914C63.5788 25.2149 62.8843 25.9104 61.7635 25.9104C61.39 25.9015 61.0276 25.7816 60.7225 25.5659C60.4173 25.3503 60.1834 25.0487 60.0503 24.6995L58.7494 25.2409C58.9943 25.8382 59.4121 26.3488 59.9491 26.7072C60.4861 27.0655 61.1179 27.2554 61.7635 27.2523C63.5148 27.2523 64.9968 26.2216 64.9968 23.7108V17.6065H63.5788V18.1519ZM61.8666 22.8552C61.3394 22.8267 60.8431 22.5972 60.4799 22.214C60.1168 21.8307 59.9144 21.3228 59.9144 20.7948C59.9144 20.2668 60.1168 19.7588 60.4799 19.3755C60.8431 18.9923 61.3394 18.7628 61.8666 18.7343C62.1234 18.747 62.3751 18.8112 62.6066 18.9232C62.8381 19.0351 63.0446 19.1925 63.214 19.386C63.3834 19.5795 63.5121 19.8051 63.5925 20.0493C63.6729 20.2936 63.7033 20.5515 63.6819 20.8078C63.7017 21.0624 63.6701 21.3184 63.5888 21.5605C63.5076 21.8026 63.3784 22.0258 63.209 22.2169C63.0396 22.408 62.8334 22.563 62.6027 22.6727C62.3721 22.7824 62.1217 22.8444 61.8666 22.8552ZM81.3554 13.9899H77.7789V23.987H79.2699V20.1963H81.3534C81.7783 20.2249 82.2046 20.1659 82.6058 20.0229C83.0069 19.8799 83.3744 19.6561 83.6855 19.3652C83.9966 19.0744 84.2446 18.7227 84.4142 18.332C84.5837 17.9413 84.6712 17.52 84.6712 17.0941C84.6712 16.6683 84.5837 16.2469 84.4142 15.8562C84.2446 15.4656 83.9966 15.1139 83.6855 14.823C83.3744 14.5322 83.0069 14.3083 82.6058 14.1654C82.2046 14.0224 81.7783 13.9634 81.3534 13.9919M81.3924 18.8083H79.2679V15.3809H81.3914C81.8458 15.3809 82.2816 15.5614 82.6029 15.8827C82.9242 16.204 83.1047 16.6398 83.1047 17.0941C83.1047 17.5485 82.9242 17.9843 82.6029 18.3056C82.2816 18.6268 81.8458 18.8073 81.3914 18.8073M90.616 17.3713C90.0716 17.3395 89.5298 17.4673 89.057 17.7389C88.5842 18.0105 88.2009 18.4142 87.9541 18.9004L89.279 19.4538C89.4102 19.2122 89.6091 19.0141 89.8512 18.8838C90.0932 18.7535 90.3681 18.6967 90.642 18.7203C91.0204 18.6831 91.398 18.7975 91.6922 19.0384C91.9863 19.2793 92.1729 19.6269 92.2111 20.0052V20.1053C91.7319 19.851 91.1975 19.7187 90.655 19.72C89.228 19.72 87.775 20.5025 87.775 21.9696C87.7884 22.2788 87.8639 22.5821 87.997 22.8616C88.13 23.141 88.3179 23.3908 88.5494 23.5962C88.7809 23.8016 89.0514 23.9583 89.3447 24.0571C89.638 24.1559 89.9481 24.1946 90.2567 24.1711C90.632 24.1933 91.0064 24.1144 91.3409 23.9426C91.6753 23.7708 91.9575 23.5125 92.1581 23.1945H92.2091V23.966H93.6491V20.1353C93.6546 19.7474 93.5777 19.3629 93.4235 19.007C93.2693 18.651 93.0413 18.3319 92.7546 18.0707C92.4679 17.8094 92.129 17.612 91.7604 17.4914C91.3917 17.3709 91.0017 17.3299 90.616 17.3713ZM90.4359 22.8482C89.9465 22.8482 89.266 22.603 89.266 21.9996C89.266 21.2281 90.1146 20.9339 90.8471 20.9339C91.3233 20.9216 91.794 21.0374 92.2101 21.2691C92.1553 21.7023 91.9455 22.1011 91.6196 22.3917C91.2936 22.6824 90.8735 22.8452 90.4369 22.8502M98.8969 17.5915L97.1866 21.9246H97.1356L95.3604 17.5915H93.7532L96.4141 23.6478L94.9 27.0152H96.4561L100.559 17.5905L98.8969 17.5915ZM85.4593 23.987H86.9504V13.9899H85.4593V23.987Z" fill="white"/>
</g>
<mask id="mask2_1_121" style="mask-type:luminance" maskUnits="userSpaceOnUse" x="7" y="5" width="12" height="22">
<path d="M8.3106 6.02638C8.04846 6.3397 7.916 6.74138 7.94034 7.14917V24.8307C7.916 25.2385 8.04846 25.6402 8.3106 25.9535L8.36664 26.0096L18.2737 16.1025V15.8684L8.36664 5.96133L8.3106 6.02638Z" fill="white"/>
</mask>
<g mask="url(#mask2_1_121)">
<path d="M13.1083 0.802281L-2.07978 15.9904L13.1083 31.1785L28.2964 15.9904L13.1083 0.802281Z" fill="url(#paint0_linear_1_121)"/>
</g>
<mask id="mask3_1_121" style="mask-type:luminance" maskUnits="userSpaceOnUse" x="18" y="12" width="9" height="8">
<path d="M18.2747 15.8723V16.1065L21.577 19.4088L21.6521 19.3668L25.5638 17.1442C25.8074 17.0647 26.0196 16.9101 26.17 16.7027C26.3205 16.4953 26.4015 16.2456 26.4015 15.9894C26.4015 15.7332 26.3205 15.4835 26.17 15.2761C26.0196 15.0687 25.8074 14.9142 25.5638 14.8346L21.6521 12.612L21.578 12.57L18.2747 15.8723Z" fill="white"/>
</mask>
<g mask="url(#mask3_1_121)">
<path d="M26.6786 12.571H18.2737V19.4108H26.6786V12.571Z" fill="url(#paint1_linear_1_121)"/>
</g>
<mask id="mask4_1_121" style="mask-type:luminance" maskUnits="userSpaceOnUse" x="8" y="15" width="14" height="12">
<path d="M8.31159 25.9525C8.53917 26.1533 8.82979 26.2682 9.13315 26.2773C9.43651 26.2865 9.73352 26.1893 9.97277 26.0025L21.6521 19.3668L18.2757 15.9894L8.31159 25.9525Z" fill="white"/>
</mask>
<g mask="url(#mask4_1_121)">
<path d="M14.9818 9.32017L3.11091 21.191L14.9818 33.0619L26.8526 21.191L14.9818 9.32017Z" fill="url(#paint2_linear_1_121)"/>
</g>
<mask id="mask5_1_121" style="mask-type:luminance" maskUnits="userSpaceOnUse" x="8" y="5" width="14" height="11">
<path d="M8.31159 6.02716L18.2757 15.9912L21.6511 12.6168L9.97677 5.97812C9.705 5.81177 9.39462 5.719 9.07613 5.70893C8.93353 5.70561 8.79182 5.73222 8.66014 5.78703C8.52845 5.84184 8.40972 5.92364 8.31159 6.02716Z" fill="white"/>
</mask>
<g mask="url(#mask5_1_121)">
<path d="M14.9816 -0.96105L3.17094 10.8496L14.9816 22.6603L26.7923 10.8496L14.9816 -0.96105Z" fill="url(#paint3_linear_1_121)"/>
</g>
<mask id="mask6_1_121" style="mask-type:luminance" maskUnits="userSpaceOnUse" x="0" y="0" width="108" height="33">
<path d="M107.986 0H0.0137151V32.2999H107.986V0Z" fill="white"/>
</mask>
<g mask="url(#mask6_1_121)">
<g opacity="0.2">
<mask id="mask7_1_121" style="mask-type:luminance" maskUnits="userSpaceOnUse" x="8" y="19" width="14" height="8">
<path d="M21.6511 19.2928H8.31061V26.2717H21.6511V19.2928Z" fill="white"/>
</mask>
<g mask="url(#mask7_1_121)">
<path d="M21.577 19.2928L9.97681 25.8854C9.74705 26.0605 9.46658 26.156 9.17775 26.1576C8.88891 26.1593 8.60739 26.0669 8.37567 25.8944L8.31663 25.9535L8.37567 26.0095C8.60739 26.182 8.88891 26.2744 9.17775 26.2727C9.46658 26.2711 9.74705 26.1756 9.97681 26.0005L21.6521 19.3608L21.577 19.2928Z" fill="black"/>
</g>
</g>
<g opacity="0.12">
<mask id="mask8_1_121" style="mask-type:luminance" maskUnits="userSpaceOnUse" x="7" y="24" width="2" height="2">
<path d="M8.36973 24.7145H7.94034V25.9547H8.36973V24.7145Z" fill="white"/>
</mask>
<g mask="url(#mask8_1_121)">
<path d="M8.30968 25.8366C8.04748 25.5232 7.91499 25.1214 7.93933 24.7136V24.8307C7.91499 25.2386 8.04748 25.6403 8.30968 25.9537L8.36873 25.8947L8.30968 25.8366Z" fill="black"/>
</g>
</g>
<g opacity="0.12">
<mask id="mask9_1_121" style="mask-type:luminance" maskUnits="userSpaceOnUse" x="21" y="15" width="6" height="5">
<path d="M26.4004 15.9904H21.576V19.3668H26.4004V15.9904Z" fill="white"/>
</mask>
<g mask="url(#mask9_1_121)">
<path d="M25.5618 17.0272L21.576 19.2918L21.6501 19.3658L25.5618 17.1432C25.7919 17.0435 25.9911 16.8838 26.1384 16.6808C26.2857 16.4779 26.3759 16.2391 26.3994 15.9894C26.3499 16.2155 26.2483 16.427 26.1028 16.607C25.9572 16.7869 25.7716 16.9305 25.5608 17.0261" fill="black"/>
</g>
</g>
<g opacity="0.25">
<mask id="mask10_1_121" style="mask-type:luminance" maskUnits="userSpaceOnUse" x="7" y="5" width="20" height="11">
<path d="M26.4004 5.70817H7.94034V15.9895H26.4004V5.70817Z" fill="white"/>
</mask>
<g mask="url(#mask10_1_121)">
<path d="M9.96878 6.09351L25.5598 14.9518C25.7701 15.0479 25.9551 15.1917 26.1 15.3719C26.2449 15.552 26.3457 15.7635 26.3944 15.9895C26.371 15.7396 26.2807 15.5005 26.1332 15.2973C25.9857 15.0942 25.7863 14.9344 25.5558 14.8347L9.96878 5.97643C8.85099 5.34198 7.93734 5.86835 7.93734 7.15026V7.26835C7.93734 5.98944 8.85099 5.46106 9.96878 6.09351Z" fill="white"/>
</g>
</g>
</g>
</g>
</g>
</g>
</g>
<defs>
<linearGradient id="paint0_linear_1_121" x1="15.022" y1="36.4943" x2="15.584" y2="35.9324" gradientUnits="userSpaceOnUse">
<stop stop-color="#00A0FF"/>
<stop offset="0.007" stop-color="#00A1FF"/>
<stop offset="0.26" stop-color="#00BEFF"/>
<stop offset="0.512" stop-color="#00D2FF"/>
<stop offset="0.76" stop-color="#00DFFF"/>
<stop offset="1" stop-color="#00E3FF"/>
</linearGradient>
<linearGradient id="paint1_linear_1_121" x1="-0.0323405" y1="31.9825" x2="0.766131" y2="31.9825" gradientUnits="userSpaceOnUse">
<stop stop-color="#FFE000"/>
<stop offset="0.409" stop-color="#FFBD00"/>
<stop offset="0.775" stop-color="#FFA500"/>
<stop offset="1" stop-color="#FF9C00"/>
</linearGradient>
<linearGradient id="paint2_linear_1_121" x1="12.0259" y1="39.4602" x2="12.5838" y2="38.9023" gradientUnits="userSpaceOnUse">
<stop stop-color="#FF3A44"/>
<stop offset="1" stop-color="#C31162"/>
</linearGradient>
<linearGradient id="paint3_linear_1_121" x1="19.3634" y1="36.467" x2="19.9303" y2="35.9001" gradientUnits="userSpaceOnUse">
<stop stop-color="#32A071"/>
<stop offset="0.068" stop-color="#2DA771"/>
<stop offset="0.476" stop-color="#15CF74"/>
<stop offset="0.801" stop-color="#06E775"/>
<stop offset="1" stop-color="#00F076"/>
</linearGradient>
<clipPath id="clip0_1_121">
<rect width="107.9" height="32.27" fill="white" transform="scale(1.00093)"/>
</clipPath>
<clipPath id="clip1_1_121">
<rect width="107.9" height="32.27" fill="white" transform="scale(1.00093)"/>
</clipPath>
<clipPath id="clip2_1_121">
<rect width="107.873" height="32.27" fill="white" transform="translate(0.0137151) scale(1.00093)"/>
</clipPath>
</defs>
</svg>
