<svg width="97" height="33" viewBox="0 0 97 33" fill="none" xmlns="http://www.w3.org/2000/svg">
<g clip-path="url(#clip0_1_88)">
<g clip-path="url(#clip1_1_88)">
<g clip-path="url(#clip2_1_88)">
<mask id="mask0_1_88" style="mask-type:luminance" maskUnits="userSpaceOnUse" x="0" y="0" width="97" height="33">
<path d="M96.9895 0H0.0105152V32.417H96.9895V0Z" fill="white"/>
</mask>
<g mask="url(#mask0_1_88)">
<path d="M89.2671 0H6.85006C6.60199 0 6.35593 0.00602603 6.10585 0.0110477C5.56164 0.0174333 5.01872 0.0654469 4.48183 0.154668C3.94579 0.246204 3.42648 0.417503 2.94118 0.662864C2.45729 0.910744 2.01507 1.23266 1.63051 1.61699C1.24399 2.0008 0.921826 2.44437 0.676392 2.93066C0.431373 3.41664 0.26203 3.9372 0.174222 4.47433C0.0818421 5.00959 0.0311382 5.55122 0.0225673 6.09433C0.0105152 6.3434 0.0105152 6.59348 0.0105152 6.84055V25.5765C0.0105152 25.8276 0.0105152 26.0716 0.0225673 26.3227C0.0292499 26.8667 0.0782758 27.4094 0.169201 27.9457C0.256793 28.4829 0.426147 29.0035 0.67137 29.4894C0.916908 29.9732 1.23911 30.4141 1.62549 30.795C2.00857 31.1811 2.45107 31.5032 2.93615 31.7492C3.42147 31.9951 3.94072 32.1674 4.47681 32.2604C5.01382 32.3485 5.55668 32.3961 6.10083 32.403C6.35191 32.409 6.59697 32.412 6.84504 32.412H90.1449C90.392 32.412 90.6471 32.412 90.8921 32.403C91.4353 32.3966 91.9772 32.3489 92.5131 32.2604C93.051 32.167 93.5722 31.9947 94.0598 31.7492C94.5433 31.503 94.9841 31.1809 95.3655 30.795C95.7512 30.4126 96.0745 29.972 96.3236 29.4894C96.5686 29.0034 96.738 28.4829 96.8258 27.9457C96.916 27.4092 96.9664 26.8667 96.9764 26.3227C96.9764 26.0716 96.9764 25.8276 96.9764 25.5765C96.9824 25.2812 96.9825 24.989 96.9825 24.6897V7.72839C96.9825 7.42709 96.9824 7.13784 96.9764 6.84357V6.09734C96.9663 5.55336 96.916 5.01088 96.8258 4.47433C96.7375 3.93795 96.5682 3.41811 96.3236 2.93267C95.8246 1.95857 95.0334 1.16493 94.0608 0.662864C93.572 0.417517 93.0494 0.246245 92.5101 0.154668C91.9763 0.065659 91.4363 0.0179787 90.8952 0.0120521C90.6481 0.0120521 90.393 0.00301302 90.1479 0.00100434H89.2691" fill="#A2A2A2"/>
<path d="M6.85524 31.7082C6.60817 31.7082 6.36713 31.7082 6.12308 31.6992C5.61533 31.693 5.10875 31.649 4.60753 31.5676C4.14028 31.4875 3.68767 31.3378 3.26473 31.1237C2.84561 30.9118 2.46341 30.6337 2.13284 30.3001C1.79734 29.971 1.51781 29.5894 1.30526 29.1702C1.09127 28.7476 0.942935 28.2948 0.865362 27.8274C0.782583 27.324 0.738264 26.815 0.73279 26.3049C0.73279 26.1341 0.720738 25.5626 0.720738 25.5626V6.84377C0.720738 6.84377 0.725759 6.28335 0.73279 6.11965C0.738035 5.61119 0.782018 5.10387 0.864358 4.60209C0.941852 4.13331 1.09054 3.67913 1.30526 3.25527C1.51611 2.83548 1.79394 2.45284 2.12782 2.12238C2.46091 1.78835 2.84417 1.50844 3.26372 1.29279C3.68572 1.07956 4.13736 0.930928 4.60351 0.851888C5.10634 0.76961 5.61461 0.724961 6.12408 0.718311L6.85524 0.709272H90.1421L90.8843 0.72032C91.389 0.726219 91.8926 0.7702 92.3908 0.851888C92.8615 0.932075 93.3178 1.08168 93.7446 1.29581C94.5857 1.72899 95.2702 2.41451 95.7021 3.25628C95.9136 3.67741 96.0602 4.12809 96.137 4.59305C96.2211 5.0988 96.2681 5.61004 96.2776 6.12266V6.84377C96.2836 7.14508 96.2836 7.43633 96.2836 7.7286V24.6899C96.2836 24.9841 96.2836 25.2724 96.2776 25.5606C96.2776 25.8258 96.2776 26.0628 96.2776 26.3139C96.2687 26.8188 96.2227 27.3223 96.14 27.8204C96.0639 28.2914 95.9162 28.7479 95.7021 29.1742C95.4881 29.5897 95.2102 29.969 94.8785 30.2981C94.5476 30.6335 94.1647 30.9133 93.7446 31.1267C93.3191 31.3426 92.8633 31.4929 92.3928 31.5726C91.8916 31.6544 91.385 31.6984 90.8772 31.7042C90.6402 31.7102 90.3921 31.7132 90.1501 31.7132H6.85524V31.7082Z" fill="black"/>
<path d="M20.0832 16.4531C20.0916 15.7767 20.2709 15.1134 20.6045 14.525C20.9382 13.9365 21.4153 13.4421 21.9915 13.0876C21.6255 12.565 21.1428 12.1349 20.5816 11.8314C20.0204 11.5278 19.3962 11.3593 18.7585 11.3391C17.3976 11.1964 16.0789 12.1536 15.3849 12.1536C14.6909 12.1536 13.6103 11.3501 12.4603 11.3772C11.7168 11.4012 10.9921 11.6173 10.3569 12.0045C9.72168 12.3917 9.19758 12.9368 8.83563 13.5868C7.26786 16.2985 8.4339 20.2887 9.94041 22.4822C10.6917 23.5558 11.5694 24.756 12.7184 24.7128C13.8423 24.6666 14.2621 23.9967 15.6189 23.9967C16.9758 23.9967 17.3574 24.7128 18.5315 24.6857C19.7367 24.6656 20.498 23.6071 21.2232 22.5224C21.7633 21.7557 22.1786 20.9082 22.4535 20.0115C21.7531 19.7151 21.1554 19.2192 20.7348 18.5856C20.3143 17.952 20.0894 17.2086 20.0882 16.4481" fill="white"/>
<path d="M17.8702 9.89631C18.5283 9.10657 18.8526 8.09145 18.7743 7.06648C17.7689 7.17204 16.8403 7.6527 16.1735 8.41258C15.8475 8.78345 15.5978 9.21496 15.4387 9.68244C15.2796 10.1499 15.2142 10.6442 15.2463 11.1369C15.7491 11.1422 16.2464 11.0332 16.7009 10.8183C17.1554 10.6034 17.5553 10.2882 17.8702 9.89631Z" fill="white"/>
<path d="M34.2926 21.9951H30.4571L29.5361 24.7169H27.9111L31.5448 14.6524H33.2331L36.8668 24.7169H35.2156L34.2926 21.9951ZM30.8538 20.7397H33.8949L32.3954 16.3206H32.3543L30.8538 20.7397Z" fill="white"/>
<path d="M44.7136 21.047C44.7136 23.3258 43.4944 24.7922 41.6514 24.7922C41.1847 24.8165 40.7206 24.709 40.3122 24.482C39.9037 24.255 39.5673 23.9177 39.3414 23.5086H39.3063V27.1423H37.7998V17.3781H39.2581V18.5974H39.2852C39.5206 18.1901 39.8621 17.8543 40.2733 17.6258C40.6846 17.3973 41.1501 17.2846 41.6203 17.2998C43.4833 17.2998 44.7106 18.7711 44.7106 21.045M43.1629 21.045C43.1629 19.5616 42.3946 18.5833 41.2225 18.5833C40.0716 18.5833 39.2982 19.5806 39.2982 21.045C39.2982 22.5093 40.0716 23.5136 41.2225 23.5136C42.3946 23.5136 43.1629 22.5444 43.1629 21.045Z" fill="white"/>
<path d="M52.7895 21.0469C52.7895 23.3257 51.5703 24.792 49.7273 24.792C49.2606 24.8167 48.7963 24.7093 48.3878 24.4823C47.9792 24.2553 47.6429 23.9178 47.4173 23.5085H47.3862V27.1422H45.8797V17.378H47.338V18.5973H47.3641C47.5995 18.1906 47.9405 17.8552 48.3511 17.6267C48.7617 17.3983 49.2265 17.2853 49.6962 17.2997C51.5582 17.2997 52.7855 18.771 52.7855 21.0448M51.2378 21.0448C51.2378 19.5614 50.4705 18.5832 49.2985 18.5832C48.1475 18.5832 47.3741 19.5805 47.3741 21.0448C47.3741 22.5092 48.1475 23.5135 49.2985 23.5135C50.4705 23.5135 51.2378 22.5443 51.2378 21.0448Z" fill="white"/>
<path d="M58.1266 21.9117C58.2381 22.91 59.2072 23.5649 60.537 23.5649C61.8065 23.5649 62.7194 22.909 62.7194 22.0091C62.7194 21.2278 62.168 20.7597 60.8644 20.4404L59.5588 20.126C57.7098 19.6791 56.8471 18.8204 56.8471 17.4143C56.8471 15.6778 58.3606 14.4856 60.5089 14.4856C62.6351 14.4856 64.0934 15.6788 64.1426 17.4143H62.625C62.5336 16.4099 61.703 15.8073 60.4908 15.8073C59.2786 15.8073 58.447 16.421 58.447 17.3138C58.447 18.0259 58.9773 18.4437 60.2739 18.7641L61.3786 19.0363C63.4456 19.5244 64.3023 20.354 64.3023 21.8263C64.3023 23.7095 62.8018 24.8886 60.4165 24.8886C58.1848 24.8886 56.6773 23.7366 56.5809 21.9167L58.1266 21.9117Z" fill="white"/>
<path d="M67.5563 15.6415V17.378H68.9514V18.5702H67.5563V22.6156C67.5563 23.2444 67.8366 23.5376 68.4492 23.5376C68.6148 23.5348 68.78 23.5231 68.9443 23.5025V24.6876C68.6686 24.7395 68.3883 24.763 68.1077 24.7579C66.6243 24.7579 66.0408 24.2005 66.0408 22.7773V18.5702H64.9762V17.378H66.0438V15.6415H67.5563Z" fill="white"/>
<path d="M69.7599 21.0469C69.7599 18.7369 71.1187 17.2876 73.2399 17.2876C75.3611 17.2876 76.7249 18.7379 76.7249 21.0469C76.7249 23.3559 75.3781 24.8061 73.2439 24.8061C71.1097 24.8061 69.7639 23.3609 69.7639 21.0469M75.1873 21.0469C75.1873 19.463 74.4612 18.529 73.2409 18.529C72.0206 18.529 71.2945 19.4711 71.2945 21.0469C71.2945 22.6227 72.0196 23.5638 73.2409 23.5638C74.4622 23.5638 75.1873 22.6368 75.1873 21.0469Z" fill="white"/>
<path d="M77.9623 17.377H79.4005V18.6264H79.4357C79.5333 18.2365 79.7621 17.8921 80.0835 17.6509C80.405 17.4097 80.7997 17.2864 81.2013 17.3017C81.3749 17.3007 81.5481 17.3196 81.7175 17.3579V18.764C81.4983 18.6971 81.2697 18.6666 81.0406 18.6736C80.8213 18.6645 80.6026 18.7032 80.3997 18.7868C80.1967 18.8705 80.0143 18.9972 79.8651 19.1581C79.7159 19.3191 79.6033 19.5106 79.5353 19.7192C79.4672 19.9279 79.4452 20.1489 79.4708 20.3669V24.7157H77.9643L77.9623 17.377Z" fill="white"/>
<path d="M88.6585 22.5604C88.4933 23.2539 88.0821 23.8638 87.5011 24.277C86.9202 24.6902 86.2091 24.8786 85.4998 24.8071C83.3656 24.8071 82.0399 23.3759 82.0399 21.082C82.0399 18.7881 83.3727 17.2876 85.4366 17.2876C87.4663 17.2876 88.7429 18.6827 88.7429 20.9033V21.4195H83.5605V21.5099C83.536 21.78 83.5694 22.0523 83.6585 22.3085C83.7475 22.5648 83.8902 22.7991 84.0769 22.9958C84.2637 23.1925 84.4903 23.3472 84.7415 23.4495C84.9928 23.5517 85.2629 23.5993 85.534 23.5889C85.8901 23.6222 86.2474 23.5397 86.5528 23.3537C86.8583 23.1677 87.0955 22.8881 87.2293 22.5564L88.6585 22.5604ZM83.5675 20.37H87.2353C87.2488 20.127 87.2119 19.8839 87.127 19.6559C87.042 19.4278 86.9108 19.2199 86.7416 19.045C86.5723 18.8701 86.3688 18.7322 86.1437 18.6397C85.9186 18.5473 85.6768 18.5024 85.4336 18.5079C85.1883 18.5063 84.9451 18.5533 84.718 18.6463C84.491 18.7392 84.2846 18.8762 84.1109 19.0493C83.9371 19.2225 83.7993 19.4283 83.7055 19.655C83.6118 19.8816 83.5638 20.1247 83.5645 20.37" fill="white"/>
<path d="M30.666 7.0756C30.9816 7.05304 31.2984 7.1008 31.5934 7.21543C31.8883 7.33007 32.1542 7.50873 32.3718 7.73853C32.5894 7.96833 32.7533 8.24354 32.8517 8.54434C32.9501 8.84513 32.9805 9.16401 32.9408 9.47798C32.9835 9.79392 32.9554 10.1154 32.8586 10.4192C32.7617 10.7229 32.5985 11.0013 32.3807 11.2341C32.1629 11.467 31.8961 11.6485 31.5995 11.7655C31.3029 11.8825 30.984 11.932 30.666 11.9105H28.9174V7.0756H30.666ZM29.6707 11.2275H30.5826C30.8082 11.241 31.0341 11.204 31.2436 11.1192C31.4532 11.0344 31.6412 10.9039 31.7939 10.7373C31.9467 10.5706 32.0604 10.3721 32.1268 10.156C32.1931 9.93985 32.2104 9.71167 32.1775 9.48802C32.208 9.26527 32.189 9.03851 32.1216 8.824C32.0542 8.60949 31.9402 8.41253 31.7878 8.24724C31.6354 8.08195 31.4483 7.95242 31.2399 7.86794C31.0316 7.78345 30.8071 7.7461 30.5826 7.75855H29.6707V11.2275Z" fill="white"/>
<path d="M33.7904 10.0859C33.768 9.84636 33.7958 9.60473 33.8721 9.37652C33.9484 9.14831 34.0715 8.93854 34.2335 8.76063C34.3956 8.58273 34.5929 8.4406 34.813 8.34335C35.0331 8.2461 35.2711 8.19587 35.5117 8.19587C35.7524 8.19587 35.9904 8.2461 36.2105 8.34335C36.4306 8.4406 36.6279 8.58273 36.79 8.76063C36.952 8.93854 37.0751 9.14831 37.1514 9.37652C37.2277 9.60473 37.2555 9.84636 37.2331 10.0859C37.257 10.3264 37.2304 10.5692 37.1548 10.7987C37.0792 11.0282 36.9564 11.2394 36.7942 11.4185C36.632 11.5977 36.4341 11.7408 36.2132 11.8388C35.9924 11.9368 35.7534 11.9874 35.5117 11.9874C35.2701 11.9874 35.0311 11.9368 34.8103 11.8388C34.5894 11.7408 34.3915 11.5977 34.2293 11.4185C34.0671 11.2394 33.9443 11.0282 33.8687 10.7987C33.7931 10.5692 33.7665 10.3264 33.7904 10.0859ZM36.4937 10.0859C36.4937 9.29435 36.1381 8.83225 35.5143 8.83225C34.8904 8.83225 34.5358 9.29535 34.5358 10.0859C34.5358 10.8765 34.8884 11.3426 35.5143 11.3426C36.1401 11.3426 36.4937 10.8805 36.4937 10.0859Z" fill="white"/>
<path d="M41.8031 11.9113H41.0599L40.3056 9.22373H40.2494L39.4931 11.9113H38.7509L37.7465 8.26258H38.4767L39.1305 11.0476H39.1837L39.939 8.26258H40.628L41.3782 11.0476H41.4345L42.0853 8.26258H42.8074L41.8031 11.9113Z" fill="white"/>
<path d="M43.6551 8.26264H44.3472V8.84227H44.4045C44.495 8.634 44.648 8.45904 44.8424 8.34168C45.0368 8.22432 45.2629 8.17036 45.4894 8.1873C45.6671 8.17372 45.8456 8.20036 46.0116 8.26525C46.1776 8.33013 46.3269 8.43158 46.4483 8.56207C46.5697 8.69256 46.6602 8.84873 46.713 9.01898C46.7657 9.18922 46.7795 9.36917 46.7531 9.54546V11.9082H46.0329V9.7313C46.0329 9.14464 45.7777 8.85332 45.2453 8.85332C45.1248 8.84785 45.0045 8.8685 44.8928 8.91384C44.781 8.95919 44.6804 9.02816 44.5977 9.11603C44.5151 9.20391 44.4525 9.3086 44.4141 9.42295C44.3757 9.53729 44.3625 9.65859 44.3753 9.77852V11.9132H43.6541L43.6551 8.26264Z" fill="white"/>
<path d="M48.6225 6.83766H47.9014V11.9116H48.6225V6.83766Z" fill="white"/>
<path d="M49.6238 10.0859C49.6006 9.8458 49.6279 9.60351 49.7038 9.37457C49.7798 9.14563 49.9028 8.93511 50.0649 8.75653C50.2271 8.57794 50.4248 8.43524 50.6453 8.33759C50.8659 8.23994 51.1044 8.18949 51.3457 8.18949C51.5869 8.18949 51.8254 8.23994 52.046 8.33759C52.2665 8.43524 52.4642 8.57794 52.6264 8.75653C52.7885 8.93511 52.9115 9.14563 52.9875 9.37457C53.0634 9.60351 53.0907 9.8458 53.0675 10.0859C53.0907 10.326 53.0634 10.5683 52.9875 10.7972C52.9115 11.0261 52.7885 11.2367 52.6264 11.4153C52.4642 11.5938 52.2665 11.7365 52.046 11.8342C51.8254 11.9318 51.5869 11.9823 51.3457 11.9823C51.1044 11.9823 50.8659 11.9318 50.6453 11.8342C50.4248 11.7365 50.2271 11.5938 50.0649 11.4153C49.9028 11.2367 49.7798 11.0261 49.7038 10.7972C49.6279 10.5683 49.6006 10.326 49.6238 10.0859ZM52.3271 10.0859C52.3271 9.2943 51.9715 8.8322 51.3477 8.8322C50.7238 8.8322 50.3692 9.2953 50.3692 10.0859C50.3692 10.8765 50.7218 11.3426 51.3477 11.3426C51.9735 11.3426 52.3271 10.8805 52.3271 10.0859Z" fill="white"/>
<path d="M53.823 10.8805C53.823 10.2235 54.3132 9.84478 55.1812 9.79154L56.1707 9.73327V9.41885C56.1707 9.0331 55.9165 8.81611 55.4233 8.81611C55.0214 8.81611 54.7422 8.96479 54.6628 9.21794H53.9596C54.033 8.59009 54.6236 8.18827 55.4514 8.18827C56.3665 8.18827 56.8829 8.64333 56.8829 9.41583V11.9071H56.1897V11.3978H56.1335C56.0182 11.582 55.8561 11.7324 55.6637 11.8335C55.4714 11.9346 55.2556 11.9829 55.0385 11.9734C54.8854 11.9888 54.7308 11.9721 54.5845 11.9242C54.4382 11.8764 54.3036 11.7985 54.1892 11.6957C54.0747 11.5928 53.9831 11.4671 53.92 11.3267C53.8569 11.1864 53.8239 11.0344 53.823 10.8805ZM56.1696 10.5681V10.2667L55.2776 10.3229C54.7753 10.3561 54.5473 10.5239 54.5473 10.8493C54.5473 11.1748 54.8326 11.3687 55.2244 11.3687C55.3389 11.3804 55.4547 11.369 55.5648 11.3351C55.6749 11.3013 55.777 11.2456 55.8652 11.1715C55.9534 11.0974 56.0258 11.0063 56.0781 10.9037C56.1304 10.8011 56.1615 10.689 56.1696 10.5741" fill="white"/>
<path d="M57.8333 10.0846C57.8333 8.93157 58.4259 8.20142 59.3479 8.20142C59.5758 8.19122 59.8019 8.24593 60 8.35918C60.198 8.47244 60.3599 8.63958 60.4667 8.84118H60.5199V6.83251H61.241V11.9054H60.5521V11.3289H60.4968C60.382 11.5293 60.2145 11.6945 60.0125 11.8065C59.8105 11.9186 59.5817 11.9733 59.3509 11.9647C58.4229 11.9647 57.8363 11.2335 57.8363 10.0785M58.5785 10.0785C58.5785 10.8519 58.9431 11.3189 59.5538 11.3189C60.1644 11.3189 60.536 10.8458 60.536 10.0815C60.536 9.31724 60.1564 8.84118 59.5538 8.84118C58.9511 8.84118 58.5785 9.31021 58.5785 10.0785Z" fill="white"/>
<path d="M64.2209 10.0859C64.1985 9.84636 64.2263 9.60473 64.3026 9.37652C64.3789 9.14831 64.502 8.93854 64.664 8.76063C64.826 8.58273 65.0234 8.4406 65.2435 8.34335C65.4636 8.2461 65.7016 8.19587 65.9422 8.19587C66.1829 8.19587 66.4208 8.2461 66.6409 8.34335C66.861 8.4406 67.0584 8.58273 67.2204 8.76063C67.3825 8.93854 67.5056 9.14831 67.5819 9.37652C67.6582 9.60473 67.686 9.84636 67.6635 10.0859C67.6875 10.3264 67.6609 10.5692 67.5853 10.7987C67.5097 11.0282 67.3868 11.2394 67.2247 11.4185C67.0625 11.5977 66.8646 11.7408 66.6437 11.8388C66.4228 11.9368 66.1839 11.9874 65.9422 11.9874C65.7006 11.9874 65.4616 11.9368 65.2407 11.8388C65.0199 11.7408 64.822 11.5977 64.6598 11.4185C64.4976 11.2394 64.3748 11.0282 64.2992 10.7987C64.2236 10.5692 64.1969 10.3264 64.2209 10.0859ZM66.9242 10.0859C66.9242 9.29435 66.5686 8.83225 65.9447 8.83225C65.3209 8.83225 64.9663 9.29535 64.9663 10.0859C64.9663 10.8765 65.3189 11.3426 65.9447 11.3426C66.5706 11.3426 66.9242 10.8805 66.9242 10.0859Z" fill="white"/>
<path d="M68.629 8.26279H69.3211V8.84242H69.3744C69.4654 8.63286 69.6198 8.45704 69.8157 8.33959C70.0117 8.22214 70.2396 8.16894 70.4673 8.18745C70.6449 8.17419 70.8231 8.20107 70.9889 8.2661C71.1546 8.33112 71.3036 8.43262 71.4248 8.56307C71.546 8.69352 71.6363 8.84957 71.6889 9.01966C71.7416 9.18975 71.7553 9.36951 71.729 9.54561V11.9083H71.0108V9.73146C71.0108 9.14479 70.7556 8.85347 70.2232 8.85347C70.1027 8.84801 69.9825 8.86865 69.8707 8.914C69.7589 8.95934 69.6583 9.02831 69.5757 9.11619C69.493 9.20406 69.4304 9.30876 69.392 9.4231C69.3536 9.53745 69.3404 9.65874 69.3533 9.77867V11.9134H68.629V8.26279Z" fill="white"/>
<path d="M75.7982 7.35367V8.28389H76.5898V8.88662H75.7982V10.7641C75.7982 11.1459 75.9569 11.3136 76.3145 11.3136C76.4065 11.3134 76.4984 11.3081 76.5898 11.2976V11.9003C76.4604 11.923 76.3294 11.9351 76.198 11.9365C75.3944 11.9365 75.0779 11.6542 75.0779 10.951V8.88662H74.4993V8.28389H75.0769V7.35367H75.7982Z" fill="white"/>
<path d="M77.5696 6.83766H78.2837V8.84633H78.3399C78.4361 8.6359 78.5949 8.46027 78.7946 8.34343C78.9943 8.22659 79.2252 8.17423 79.4557 8.19351C79.6323 8.18434 79.8088 8.21414 79.9726 8.28079C80.1363 8.34744 80.2834 8.44932 80.4035 8.5792C80.5235 8.70907 80.6134 8.86376 80.6669 9.0323C80.7205 9.20083 80.7362 9.37908 80.7132 9.55439V11.9126H79.992V9.73317C79.992 9.15065 79.7209 8.85437 79.2117 8.85437C79.088 8.84439 78.9636 8.86152 78.8472 8.90458C78.7308 8.94763 78.6253 9.01558 78.5378 9.10366C78.4504 9.19174 78.3833 9.29783 78.3411 9.41454C78.299 9.53125 78.2828 9.65576 78.2937 9.77937V11.9106H77.5696V6.83766Z" fill="white"/>
<path d="M84.913 10.9269C84.8149 11.2606 84.6028 11.5491 84.3136 11.7423C84.0244 11.9355 83.6766 12.0209 83.3308 11.9837C83.0904 11.99 82.8515 11.944 82.6307 11.8487C82.4098 11.7535 82.2124 11.6113 82.052 11.4321C81.8916 11.2529 81.7722 11.0409 81.7019 10.8109C81.6317 10.5809 81.6123 10.3384 81.6452 10.1002C81.6131 9.86106 81.6327 9.61785 81.7028 9.38699C81.7728 9.15614 81.8916 8.94302 82.0512 8.76205C82.2107 8.58108 82.4072 8.43649 82.6275 8.33806C82.8477 8.23963 83.0866 8.18965 83.3278 8.1915C84.3434 8.1915 84.9562 8.88565 84.9562 10.0319V10.283H82.3785V10.3232C82.3671 10.4572 82.3839 10.5921 82.4278 10.7192C82.4717 10.8463 82.5416 10.9628 82.6332 11.0613C82.7248 11.1598 82.8359 11.238 82.9595 11.291C83.0831 11.344 83.2165 11.3705 83.3509 11.3689C83.5234 11.3895 83.698 11.3584 83.8528 11.2795C84.0075 11.2007 84.1352 11.0776 84.2199 10.9259L84.913 10.9269ZM82.3785 9.75058H84.2269C84.2362 9.62802 84.2197 9.50488 84.1785 9.38909C84.1373 9.27329 84.0723 9.16741 83.9877 9.07826C83.9031 8.98911 83.8008 8.91868 83.6873 8.87149C83.5738 8.8243 83.4517 8.80141 83.3288 8.80428C83.2042 8.8028 83.0805 8.82627 82.9651 8.87331C82.8497 8.92035 82.7448 8.99002 82.6567 9.0782C82.5686 9.16638 82.4991 9.2713 82.4522 9.38677C82.4053 9.50225 82.3819 9.62594 82.3835 9.75058" fill="white"/>
</g>
</g>
</g>
</g>
<defs>
<clipPath id="clip0_1_88">
<rect width="96.56" height="32.27" fill="white" transform="scale(1.00456)"/>
</clipPath>
<clipPath id="clip1_1_88">
<rect width="96.56" height="32.27" fill="white" transform="scale(1.00456)"/>
</clipPath>
<clipPath id="clip2_1_88">
<rect width="96.5391" height="32.27" fill="white" transform="translate(0.0105152) scale(1.00456)"/>
</clipPath>
</defs>
</svg>
