<svg width="276" height="58" viewBox="0 0 276 58" fill="none" xmlns="http://www.w3.org/2000/svg">
<g clip-path="url(#clip0_1_326)">
<g clip-path="url(#clip1_1_326)">
<path d="M1.56464 3.0533C5.31974 2.42745 10.5612 1.91895 17.9932 1.91895C25.4643 1.91895 30.8231 3.36622 34.4218 6.22167C37.864 8.92065 40.1718 13.3798 40.1718 18.6604C40.1718 23.9411 38.4116 28.4002 35.2432 31.4121C31.097 35.3237 24.9558 37.0839 17.7976 37.0839C16.1939 37.0839 14.7857 37.0057 13.6514 36.8492V56.055H1.56464V3.0533ZM13.5731 27.4615C14.5901 27.6962 15.881 27.7744 17.6412 27.7744C24.0952 27.7744 28.085 24.4887 28.085 19.0125C28.085 14.0839 24.6429 11.1111 18.6191 11.1111C16.1548 11.1111 14.4728 11.3458 13.6123 11.5805V27.4615H13.5731Z" fill="white"/>
<path d="M41.932 29.9254C41.932 24.1754 41.7755 20.4594 41.6191 17.0955H52.063L52.4541 24.2536H52.767C54.7619 18.5819 59.534 16.1958 63.2892 16.1958C64.4235 16.1958 64.9711 16.1958 65.8317 16.3523V27.7349C64.9711 27.5785 63.915 27.422 62.5459 27.422C58.0868 27.422 55.0749 29.808 54.2534 33.5632C54.097 34.3455 54.0187 35.3234 54.0187 36.2621V56.0155H41.8929V29.9254H41.932Z" fill="white"/>
<path d="M109.328 2.11433C113.866 1.37114 119.733 0.97998 125.952 0.97998C136.279 0.97998 143.007 2.81842 148.248 6.80821C153.92 10.9936 157.44 17.7215 157.44 27.3048C157.44 37.7096 153.646 44.9069 148.405 49.3269C142.655 54.099 133.971 56.3677 123.293 56.3677C116.917 56.3677 112.379 55.9766 109.328 55.5463V2.11433ZM121.689 46.5106C122.745 46.7453 124.427 46.7453 125.952 46.7453C137.1 46.8235 144.376 40.6824 144.376 27.696C144.454 16.3915 137.844 10.4069 127.243 10.4069C124.505 10.4069 122.706 10.6415 121.689 10.8762V46.5106Z" fill="#414042"/>
<path d="M232.347 54.8421C230.156 55.82 226.049 56.6023 221.355 56.6023C208.604 56.6023 200.429 48.8574 200.429 36.4187C200.429 24.8796 208.33 15.4136 223.037 15.4136C226.284 15.4136 229.804 15.9612 232.386 16.9391L230.43 26.053C228.983 25.3881 226.793 24.8404 223.585 24.8404C217.131 24.8404 212.946 29.4561 213.024 35.9102C213.024 43.1857 217.874 46.9799 223.859 46.9799C226.753 46.9799 229.022 46.5105 230.9 45.7673L232.347 54.8421Z" fill="#414042"/>
<path d="M235.828 45.0632C238.097 46.4323 242.791 48.036 246.389 48.036C250.105 48.036 251.631 46.7452 251.631 44.7112C251.631 42.6772 250.418 41.7384 245.803 40.1738C237.667 37.4357 234.498 32.9765 234.577 28.3217C234.577 20.968 240.874 15.4136 250.653 15.4136C255.269 15.4136 259.376 16.4697 261.801 17.6823L259.611 26.1704C257.85 25.1925 254.447 23.9017 251.044 23.9017C248.071 23.9017 246.35 25.1143 246.35 27.1483C246.35 28.9867 247.876 29.9646 252.726 31.6857C260.236 34.2673 263.366 38.0615 263.483 43.8898C263.483 51.2435 257.655 56.6415 246.35 56.6415C241.187 56.6415 236.571 55.5071 233.599 53.9034L235.828 45.0632Z" fill="#414042"/>
<path d="M199.255 35.6363C199.255 50.07 189.007 56.7196 178.446 56.7196C166.906 56.7196 158.027 49.1312 158.027 36.3795C158.027 23.6278 166.437 15.4526 179.111 15.4526C191.197 15.4526 199.255 23.7452 199.255 35.6363ZM170.701 36.0275C170.701 42.7945 173.517 47.8795 178.759 47.8795C183.531 47.8795 186.582 43.1074 186.582 36.0275C186.582 30.121 184.313 24.1754 178.759 24.1754C172.891 24.1363 170.701 30.1992 170.701 36.0275Z" fill="#414042"/>
<path d="M268.607 11.1109V11.9714H266.925V16.3915H265.869V11.9714H264.187V11.1109H268.607ZM274.357 16.3915L274.162 13.2623C274.122 12.8711 274.122 12.3626 274.122 11.7759H274.044C273.927 12.2452 273.77 12.8711 273.614 13.3405L272.675 16.2742H271.58L270.641 13.2623C270.563 12.8711 270.406 12.2452 270.289 11.7759H270.211C270.211 12.2452 270.211 12.7538 270.172 13.2623L269.976 16.3915H268.959L269.35 11.1109H270.915L271.815 13.6925C271.932 14.0837 272.049 14.4748 272.167 15.0225C272.323 14.5531 272.401 14.0837 272.519 13.6925L273.418 11.0718H274.944L275.335 16.3524L274.357 16.3915Z" fill="#414042"/>
<path fill-rule="evenodd" clip-rule="evenodd" d="M87.1888 56.1329C98.6888 56.1329 108.077 46.7452 108.077 35.2452C108.077 23.7452 98.6888 14.3574 87.1888 14.3574C75.6888 14.3574 66.301 23.7452 66.301 35.2452C66.301 46.7452 75.6888 56.1329 87.1888 56.1329Z" fill="white"/>
<path fill-rule="evenodd" clip-rule="evenodd" d="M87.3843 49.7962C95.716 49.7962 102.483 42.8727 102.483 34.4237C102.483 25.9356 95.716 19.0513 87.3843 19.0513C79.0527 19.0513 72.2857 25.9747 72.2857 34.4237C72.2857 42.9118 79.0527 49.7962 87.3843 49.7962Z" fill="#BA6F18"/>
<path fill-rule="evenodd" clip-rule="evenodd" d="M87.3843 50.0698C95.716 50.0698 102.483 43.3028 102.483 34.9712C102.483 26.6396 95.716 19.8726 87.3843 19.8726C79.0527 19.8726 72.2857 26.6396 72.2857 34.9712C72.2857 43.2637 79.0527 50.0698 87.3843 50.0698Z" fill="url(#paint0_linear_1_326)"/>
<path fill-rule="evenodd" clip-rule="evenodd" d="M87.3844 34.0718C92.1565 34.0718 96.0289 31.4901 96.0289 28.3218C96.0289 25.1534 92.1565 22.5718 87.3844 22.5718C82.6123 22.5718 78.7398 25.1534 78.7398 28.3218C78.7398 31.451 82.6123 34.0718 87.3844 34.0718Z" fill="url(#paint1_radial_1_326)"/>
</g>
</g>
<defs>
<linearGradient id="paint0_linear_1_326" x1="87.3843" y1="50.086" x2="87.3843" y2="19.8887" gradientUnits="userSpaceOnUse">
<stop stop-color="white"/>
<stop offset="0.6165" stop-color="#C8CACC"/>
<stop offset="1" stop-color="#A7A9AC"/>
</linearGradient>
<radialGradient id="paint1_radial_1_326" cx="0" cy="0" r="1" gradientUnits="userSpaceOnUse" gradientTransform="translate(87.3844 28.3016) scale(7.51422 6.99308)">
<stop offset="0.4909" stop-color="white"/>
<stop offset="1" stop-color="#DADBDC"/>
</radialGradient>
<clipPath id="clip0_1_326">
<rect width="276" height="57.66" fill="white"/>
</clipPath>
<clipPath id="clip1_1_326">
<rect width="276" height="57.66" fill="white"/>
</clipPath>
</defs>
</svg>
