<svg width="79" height="79" viewBox="0 0 79 79" fill="none" xmlns="http://www.w3.org/2000/svg">
<path d="M39.5 79C61.3152 79 79 61.3152 79 39.5C79 17.6848 61.3152 0 39.5 0C17.6848 0 0 17.6848 0 39.5C0 61.3152 17.6848 79 39.5 79Z" fill="#559CEF"/>
<path d="M40 62C37.4389 58.6796 35.1005 55.1933 33 51.564C31.1209 48.3676 29.511 45.0204 28.187 41.557C26.8484 38.2122 26.1081 34.6581 26 31.057C26.0068 27.33 27.4833 23.7561 30.109 21.111C31.3898 19.807 32.9181 18.7717 34.6041 18.0658C36.2902 17.3598 38.1001 16.9975 39.928 17H40.076C41.9035 16.9976 43.7132 17.36 45.3989 18.0659C47.0846 18.7718 48.6125 19.8071 49.893 21.111C52.5181 23.7563 53.9939 27.3303 54 31.057C53.8916 34.6582 53.151 38.2123 51.812 41.557C50.4883 45.0204 48.8787 48.3676 47 51.564C44.8995 55.1933 42.561 58.6796 40 62ZM40.076 23.633C39.0941 23.6312 38.1218 23.8253 37.2158 24.2039C36.3099 24.5825 35.4886 25.1381 34.8 25.838C33.7528 26.8936 33.0373 28.2325 32.7415 29.6897C32.4457 31.1469 32.5826 32.6587 33.1353 34.0391C33.688 35.4195 34.6323 36.6081 35.8521 37.4584C37.0718 38.3088 38.5137 38.7838 40 38.825H40.04C41.0238 38.8265 41.9982 38.6323 42.9062 38.2535C43.8142 37.8748 44.6378 37.3192 45.329 36.619C46.7552 35.1899 47.5574 33.2541 47.56 31.235C47.5721 29.2407 46.7951 27.3226 45.3985 25.8989C44.002 24.4751 42.0991 23.6614 40.105 23.635L40.076 23.633Z" stroke="white" stroke-width="2"/>
</svg>
