<svg width="79" height="79" viewBox="0 0 79 79" fill="none" xmlns="http://www.w3.org/2000/svg">
<path d="M39.5 79C61.3152 79 79 61.3152 79 39.5C79 17.6848 61.3152 0 39.5 0C17.6848 0 0 17.6848 0 39.5C0 61.3152 17.6848 79 39.5 79Z" fill="#559CEF"/>
<path d="M56.203 36.0031V53.13H38.852V42.39H32.304V53.13H23.972V36.0031L40.088 26.941L56.203 36.0031Z" stroke="white" stroke-width="2" stroke-miterlimit="10"/>
<path d="M18.176 34.18L40.087 21.86L61.999 34.181" stroke="white" stroke-width="2" stroke-miterlimit="10" stroke-linecap="round"/>
<path d="M49.705 41.053H45.013V47.533H49.705V41.053Z" stroke="white" stroke-width="2" stroke-miterlimit="10"/>
<path d="M50.349 27.629V23.036H53.749V29.543L50.349 27.629Z" stroke="white" stroke-width="2" stroke-miterlimit="10"/>
</svg>
