<svg width="83" height="83" viewBox="0 0 83 83" fill="none" xmlns="http://www.w3.org/2000/svg">
<path d="M71.162 5.80392L70.0563 14.8296L61.0306 13.7239" stroke="#ED1C24" stroke-width="2.7504" stroke-linecap="round" stroke-linejoin="round"/>
<path d="M17.1967 73.4229C12.8238 70.0931 9.18159 65.9005 6.49606 61.1049C3.81053 56.3093 2.13871 51.0131 1.5847 45.5447C1.03069 40.0763 1.60646 34.5525 3.27559 29.3157C4.94473 24.079 7.67191 19.2407 11.2881 15.1015C14.9044 10.9624 19.3323 7.61044 24.2976 5.25339C29.2629 2.89634 34.6599 1.58451 40.1531 1.39938C45.6463 1.21426 51.1188 2.15979 56.2315 4.17721C61.3442 6.19463 65.9878 9.24103 69.8745 13.1274" stroke="#ED1C24" stroke-width="2.74985" stroke-linejoin="round"/>
<path d="M81.6181 41.5015C81.6178 48.9773 79.5292 56.3043 75.5873 62.6565C71.6454 69.0086 66.0071 74.1333 59.3085 77.4524C52.6098 80.7715 45.1168 82.1532 37.6749 81.4415C30.233 80.7299 23.1379 77.9533 17.1896 73.4248" stroke="#ED1C24" stroke-width="2.74985" stroke-linecap="round" stroke-linejoin="round" stroke-dasharray="3 4"/>
<path d="M41.4993 69.2162C56.8062 69.2162 69.2149 56.8075 69.2149 41.5006C69.2149 26.1937 56.8062 13.785 41.4993 13.785C26.1924 13.785 13.7837 26.1937 13.7837 41.5006C13.7837 56.8075 26.1924 69.2162 41.4993 69.2162Z" stroke="#ED1C24" stroke-width="2.74985" stroke-linejoin="round"/>
<path d="M41.4983 13.785V21.1066" stroke="#ED1C24" stroke-width="2.74985" stroke-linecap="round" stroke-linejoin="round"/>
<path d="M41.4983 61.7235V69.0451" stroke="#ED1C24" stroke-width="2.74985" stroke-linecap="round" stroke-linejoin="round"/>
<path d="M69.1291 41.4154H61.8075" stroke="#ED1C24" stroke-width="2.74985" stroke-linecap="round" stroke-linejoin="round"/>
<path d="M21.1904 41.4154H13.8688" stroke="#ED1C24" stroke-width="2.74985" stroke-linecap="round" stroke-linejoin="round"/>
<path d="M41.5085 46.4487C44.2411 46.4487 46.4563 44.2334 46.4563 41.5008C46.4563 38.7682 44.2411 36.553 41.5085 36.553C38.7759 36.553 36.5607 38.7682 36.5607 41.5008C36.5607 44.2334 38.7759 46.4487 41.5085 46.4487Z" stroke="#ED1C24" stroke-width="2.74985" stroke-linecap="round" stroke-linejoin="round"/>
<path d="M46.457 36.6353L56.4357 27.2002" stroke="#ED1C24" stroke-width="2.74985" stroke-linecap="round" stroke-linejoin="round"/>
</svg>
