<svg width="80" height="80" viewBox="0 0 80 80" fill="none" xmlns="http://www.w3.org/2000/svg">
<path d="M35.0107 72.0838H1.74029C1.51178 72.0839 1.28546 72.039 1.07433 71.9516C0.863191 71.8643 0.671325 71.7361 0.509747 71.5745C0.348169 71.413 0.220025 71.2211 0.132641 71.01C0.0452568 70.7988 0.000375988 70.5725 0.000508724 70.344V1.73926C0.000508724 1.27811 0.183669 0.835856 0.509747 0.509777C0.835825 0.183699 1.2781 0.000510079 1.73924 0.000510079H38.6801C38.9082 -0.000502449 39.1343 0.0435784 39.3453 0.130219C39.5564 0.21686 39.7483 0.344353 39.9099 0.505373L55.7374 16.3409C56.0615 16.6685 56.243 17.1109 56.2422 17.5718V31.6776C56.2422 32.1389 56.059 32.5813 55.7328 32.9075C55.4066 33.2336 54.9642 33.4169 54.5029 33.4169C54.0417 33.4169 53.5993 33.2336 53.2731 32.9075C52.947 32.5813 52.7637 32.1389 52.7637 31.6776V18.2927L37.9601 3.47901H3.47902V68.6063H35.0107C35.472 68.6063 35.9144 68.7895 36.2406 69.1157C36.5667 69.4419 36.75 69.8843 36.75 70.3456C36.75 70.8068 36.5667 71.2492 36.2406 71.5754C35.9144 71.9016 35.472 72.0838 35.0107 72.0838Z" fill="#ED1C24"/>
<path d="M54.5133 19.3113H38.681C38.2199 19.3113 37.7776 19.1281 37.4516 18.802C37.1255 18.4759 36.9423 18.0337 36.9423 17.5725V1.73923C36.9423 1.27796 37.1256 0.835578 37.4517 0.509409C37.7779 0.18324 38.2203 0 38.6815 0C39.1428 0 39.5852 0.18324 39.9114 0.509409C40.2375 0.835578 40.4208 1.27796 40.4208 1.73923V15.8328H54.5144C54.9756 15.8328 55.418 16.016 55.7442 16.3422C56.0703 16.6684 56.2536 17.1108 56.2536 17.572C56.2536 18.0333 56.0703 18.4757 55.7442 18.8018C55.418 19.128 54.9756 19.3113 54.5144 19.3113H54.5133Z" fill="#ED1C24"/>
<path d="M59.7894 80C55.7923 80 51.885 78.8147 48.5616 76.5941C45.2382 74.3735 42.6479 71.2172 41.1182 67.5245C39.5886 63.8317 39.1883 59.7683 39.968 55.848C40.7477 51.9277 42.6724 48.3267 45.4987 45.5003C48.3249 42.6739 51.9258 40.749 55.8461 39.9691C59.7663 39.1892 63.8297 39.5893 67.5225 41.1188C71.2154 42.6482 74.3718 45.2384 76.5926 48.5617C78.8134 51.8851 79.9988 55.7923 79.999 59.7893C79.9932 65.1476 77.8621 70.2846 74.0733 74.0736C70.2846 77.8625 65.1476 79.9939 59.7894 80ZM59.7894 43.0592C56.4803 43.0594 53.2455 44.0409 50.4942 45.8795C47.7429 47.7181 45.5985 50.3313 44.3324 53.3885C43.0662 56.4458 42.7351 59.8099 43.3809 63.0554C44.0267 66.3009 45.6203 69.282 47.9604 71.6218C50.3004 73.9615 53.2817 75.5548 56.5273 76.2002C59.7729 76.8456 63.1369 76.514 66.194 75.2475C69.2512 73.981 71.8641 71.8364 73.7024 69.0848C75.5406 66.3333 76.5217 63.0984 76.5215 59.7893C76.5175 55.3527 74.7534 51.099 71.6165 47.9616C68.4795 44.8243 64.226 43.0597 59.7894 43.0552V43.0592Z" fill="#ED1C24"/>
<path d="M57.1508 69.4423C56.6902 69.4433 56.248 69.2618 55.921 68.9374L49.3246 62.341C49.0066 62.0133 48.8303 61.5736 48.8337 61.1171C48.8371 60.6605 49.0201 60.2235 49.3429 59.9007C49.6658 59.5778 50.1027 59.3949 50.5593 59.3915C51.0159 59.388 51.4555 59.5643 51.7832 59.8823L57.0216 65.1187L67.6771 52.0934C67.9693 51.7361 68.3914 51.5096 68.8506 51.4636C69.3098 51.4176 69.7684 51.5559 70.1257 51.848C70.4829 52.1402 70.7094 52.5623 70.7554 53.0215C70.8015 53.4807 70.6632 53.9393 70.371 54.2966L58.4988 68.8082C58.3446 68.9962 58.1526 69.15 57.9355 69.2595C57.7183 69.3691 57.4806 69.432 57.2377 69.4443C57.2104 69.4423 57.1801 69.4423 57.1508 69.4423Z" fill="#ED1C24"/>
</svg>
