<svg width="83" height="79" viewBox="0 0 83 79" fill="none" xmlns="http://www.w3.org/2000/svg">
<path d="M15.5402 74.2338H1.72601C1.26832 74.2335 0.829455 74.0516 0.50582 73.7279C0.182184 73.4043 0.000265559 72.9654 0 72.5078V46.6113C0.000265559 46.1536 0.182184 45.7147 0.50582 45.3911C0.829455 45.0675 1.26832 44.8855 1.72601 44.8853H15.5373C15.9948 44.8855 16.4336 45.0675 16.7571 45.3912C17.0806 45.7148 17.2623 46.1537 17.2623 46.6113V72.5078C17.2623 72.9648 17.081 73.4032 16.7582 73.7268C16.4354 74.0504 15.9973 74.2327 15.5402 74.2338ZM3.45503 70.7807H13.8142V48.3383H3.45607L3.45503 70.7807Z" fill="#ED1C24"/>
<path d="M43.7642 78.9992C39.1715 78.9992 34.1159 77.2762 25.058 74.131C22.1693 73.1287 18.8566 71.978 14.9947 70.692C14.7795 70.6204 14.5807 70.507 14.4094 70.3584C14.2381 70.2099 14.0977 70.029 13.9964 69.8262C13.895 69.6234 13.8346 69.4026 13.8186 69.1764C13.8026 68.9502 13.8313 68.7231 13.9031 68.508C13.9744 68.2926 14.0875 68.0933 14.2359 67.9217C14.3844 67.7501 14.5652 67.6095 14.7682 67.508C14.9711 67.4065 15.1921 67.3461 15.4185 67.3302C15.6448 67.3143 15.8721 67.3433 16.0872 67.4155C19.9642 68.7085 23.2908 69.8631 26.1875 70.8695C45.0702 77.4246 45.0702 77.4246 63.3354 67.7122C67.2885 65.6073 72.1037 63.0474 78.0976 60.0195C77.1876 59.1945 76.0722 58.6299 74.8686 58.3851C73.665 58.1403 72.4176 58.2243 71.2577 58.6283L56.0225 63.6869C55.8074 63.7583 55.5803 63.7867 55.3542 63.7703C55.1281 63.754 54.9074 63.6933 54.7048 63.5916C54.5022 63.49 54.3215 63.3494 54.1732 63.178C54.0249 63.0065 53.9119 62.8075 53.8405 62.5924C53.769 62.3771 53.7406 62.1499 53.757 61.9236C53.7734 61.6974 53.8343 61.4766 53.9362 61.2739C54.038 61.0713 54.1788 60.8907 54.3506 60.7425C54.5223 60.5943 54.7216 60.4814 54.937 60.4104L70.2464 55.3317C74.818 54.0287 78.3151 55.1503 82.3674 59.2006C82.5615 59.3949 82.7066 59.6326 82.7909 59.8939C82.8752 60.1553 82.8963 60.4329 82.8525 60.704C82.8082 60.9741 82.7007 61.2298 82.5387 61.4503C82.3767 61.6709 82.1648 61.85 81.9204 61.973C74.8921 65.4861 69.3914 68.4118 64.9622 70.7652C54.2875 76.4343 49.3691 78.9992 43.7642 78.9992Z" fill="#ED1C24"/>
<path d="M51.7937 65.6012H32.8038C32.5766 65.6017 32.3515 65.5574 32.1415 65.4708C31.9314 65.3842 31.7405 65.2569 31.5797 65.0964C31.4189 64.9359 31.2913 64.7452 31.2044 64.5353C31.1174 64.3254 31.0727 64.1004 31.0728 63.8732C31.0731 63.4155 31.255 62.9767 31.5786 62.653C31.9023 62.3294 32.3411 62.1475 32.7988 62.1472H51.7887C53.5618 62.1472 54.1943 61.2171 54.1943 60.4212C54.1943 59.6254 53.5659 58.6953 51.7887 58.6953H41.4358C40.9785 58.6966 40.5394 58.5164 40.2149 58.1941C38.2915 56.2697 33.0434 51.7944 25.8989 51.7944H15.5369C15.0792 51.7941 14.6404 51.6122 14.3167 51.2886C13.9931 50.9649 13.8112 50.5261 13.8109 50.0684C13.8104 49.8414 13.8546 49.6164 13.9411 49.4065C14.0276 49.1966 14.1547 49.0058 14.315 48.845C14.4753 48.6842 14.6657 48.5566 14.8754 48.4695C15.0851 48.3824 15.3099 48.3375 15.5369 48.3374H25.8948C33.743 48.3374 39.5644 52.8237 42.1324 55.2423H51.7897C55.6326 55.2423 57.6432 57.8483 57.6432 60.4212C57.6432 62.9942 55.6366 65.6012 51.7937 65.6012Z" fill="#ED1C24"/>
<path d="M58.7 24.1694C55.4959 24.1657 52.4242 22.8913 50.1586 20.6256C47.8929 18.36 46.6185 15.2883 46.6148 12.0842C46.6187 8.88033 47.8933 5.80882 50.1589 3.54342C52.4244 1.27803 55.4961 0.00371341 58.7 0C61.9041 0.00344917 64.976 1.27782 67.2417 3.54349C69.5074 5.80916 70.7818 8.88108 70.7852 12.0852C70.7815 15.2892 69.507 18.3608 67.2413 20.6263C64.9757 22.8918 61.9039 24.166 58.7 24.1694ZM58.7 3.45306C56.4114 3.45571 54.2173 4.36603 52.5991 5.98429C50.9808 7.60256 50.0705 9.79664 50.0678 12.0852C50.0705 14.3738 50.9808 16.5679 52.5991 18.1861C54.2173 19.8044 56.4114 20.7147 58.7 20.7174C60.9886 20.7147 63.1826 19.8044 64.8009 18.1861C66.4192 16.5679 67.3295 14.3738 67.3321 12.0852C67.3295 9.79664 66.4192 7.60256 64.8009 5.98429C63.1826 4.36603 60.9886 3.45571 58.7 3.45306Z" fill="#ED1C24"/>
<path d="M43.1621 48.3381C39.9582 48.3342 36.8866 47.0596 34.6212 44.794C32.3558 42.5284 31.0815 39.4568 31.0778 36.2529C31.0818 33.0492 32.3562 29.9779 34.6216 27.7125C36.887 25.4471 39.9583 24.1727 43.1621 24.1687C46.3662 24.1722 49.4381 25.4465 51.7038 27.7122C53.9695 29.9779 55.2438 33.0498 55.2473 36.2539C55.2436 39.4579 53.9691 42.5295 51.7034 44.795C49.4378 47.0605 46.366 48.3347 43.1621 48.3381ZM43.1621 27.6218C40.8735 27.6244 38.6794 28.5347 37.0611 30.153C35.4429 31.7713 34.5326 33.9653 34.5299 36.2539C34.5326 38.5425 35.4429 40.7366 37.0611 42.3548C38.6794 43.9731 40.8735 44.8834 43.1621 44.8861C45.4506 44.8834 47.6447 43.9731 49.263 42.3548C50.8812 40.7366 51.7916 38.5425 51.7942 36.2539C51.7916 33.9653 50.8812 31.7713 49.263 30.153C47.6447 28.5347 45.4506 27.6244 43.1621 27.6218Z" fill="#ED1C24"/>
</svg>
