<svg width="67" height="89" viewBox="0 0 67 89" fill="none" xmlns="http://www.w3.org/2000/svg">
<path d="M55.0986 57.4652L63.1094 81.0041L54.3556 79.1306L48.7893 86.1416L41.6282 64.7742" stroke="#ED1C24" stroke-width="2.74975"/>
<path d="M11.5665 57.3069L3.50237 81.0039L12.2551 79.1263L17.8215 86.1373L24.9826 64.7699" stroke="#ED1C24" stroke-width="2.74975"/>
<path d="M53.1884 37.1652C55.356 26.26 48.273 15.6624 37.3681 13.4947C26.4632 11.327 15.8658 18.4101 13.6982 29.3153C11.5305 40.2204 18.6135 50.8181 29.5184 52.9858C40.4233 55.1535 51.0207 48.0703 53.1884 37.1652Z" stroke="#ED1C24" stroke-width="2.75028"/>
<path d="M36.657 63.3445C36.2777 62.8061 35.7751 62.3663 35.1912 62.0618C34.6073 61.7573 33.9591 61.5969 33.3005 61.594C32.642 61.5912 31.9923 61.7459 31.4058 62.0454C30.8193 62.3448 30.3129 62.7803 29.929 63.3153C29.4467 63.9893 28.7726 64.5024 27.9946 64.7879C27.2166 65.0735 26.3706 65.1182 25.5668 64.9162C24.7631 64.7143 24.0387 64.2751 23.488 63.6558C22.9373 63.0364 22.5858 62.2657 22.4792 61.4438C22.3934 60.7913 22.1529 60.1688 21.7777 59.6282C21.4025 59.0876 20.9034 58.6446 20.3222 58.336C19.741 58.0275 19.0944 57.8624 18.4364 57.8545C17.7784 57.8466 17.1279 57.9961 16.5395 58.2906C15.7993 58.6626 14.9645 58.8032 14.1433 58.6943C13.3222 58.5853 12.5528 58.2318 11.9352 57.6797C11.3177 57.1277 10.8805 56.4025 10.6806 55.5987C10.4807 54.7948 10.5273 53.9494 10.8143 53.1723C11.0418 52.5544 11.1182 51.8911 11.0371 51.2376C10.956 50.5842 10.7197 49.9596 10.3481 49.4161C9.9764 48.8726 9.48002 48.4259 8.90052 48.1133C8.32103 47.8007 7.67517 47.6312 7.01684 47.6191C6.18843 47.6048 5.38357 47.3415 4.70685 46.8634C4.03012 46.3854 3.51284 45.7148 3.22244 44.9388C2.93203 44.1628 2.88192 43.3174 3.07853 42.5125C3.27514 41.7076 3.70944 40.9806 4.3249 40.4259C4.8137 39.9845 5.18983 39.4326 5.42183 38.8163C5.65383 38.1999 5.73498 37.537 5.65852 36.8829C5.58205 36.2288 5.35015 35.6024 4.98225 35.0562C4.61434 34.51 4.12109 34.0597 3.54368 33.7431C2.81723 33.3453 2.22729 32.7381 1.85047 32.0006C1.47366 31.263 1.32743 30.4292 1.4308 29.6074C1.53417 28.7857 1.88229 28.014 2.43003 27.3928C2.97777 26.7715 3.69978 26.3294 4.50211 26.1239C5.14017 25.9606 5.72989 25.6469 6.22198 25.2091C6.71406 24.7713 7.0942 24.2221 7.3307 23.6074C7.56721 22.9927 7.65316 22.3303 7.5814 21.6755C7.50965 21.0208 7.28231 20.3928 6.91828 19.8439C6.45946 19.154 6.21876 18.3421 6.22763 17.5137C6.2365 16.6852 6.49444 15.8786 6.96793 15.1988C7.44142 14.5189 8.1085 13.9973 8.88246 13.7018C9.65641 13.4062 10.5015 13.3504 11.3076 13.5416C11.9485 13.6932 12.6164 13.6892 13.2554 13.5299C13.8945 13.3707 14.4862 13.0609 14.9811 12.6263C15.476 12.1917 15.8597 11.645 16.1001 11.0319C16.3406 10.4187 16.4308 9.75697 16.3634 9.10182C16.278 8.27778 16.4426 7.44714 16.8358 6.71792C17.2289 5.9887 17.8324 5.39465 18.5677 5.01304C19.303 4.63142 20.1361 4.47989 20.9587 4.57818C21.7812 4.67646 22.5552 5.01999 23.1799 5.56409C23.677 5.99588 24.2702 6.30249 24.91 6.45827C25.5498 6.61406 26.2175 6.61453 26.8574 6.45963C27.4974 6.30473 28.0911 5.99894 28.5889 5.56784C29.0866 5.13674 29.4739 4.59282 29.7186 3.98149C30.0258 3.21197 30.5575 2.5527 31.2444 2.08947C31.9314 1.62625 32.7419 1.38052 33.5704 1.38421C34.3989 1.38791 35.2072 1.64085 35.89 2.11018C36.5728 2.57951 37.0987 3.24349 37.399 4.01572C37.6385 4.62902 38.0212 5.17613 38.5152 5.61138C39.0092 6.04663 39.6002 6.35738 40.2388 6.51769C40.8773 6.67801 41.545 6.68323 42.186 6.53293C42.827 6.38263 43.4228 6.08118 43.9235 5.65372C44.5531 5.11491 45.3303 4.77804 46.1539 4.687C46.9775 4.59595 47.8094 4.75492 48.5414 5.14321C49.2735 5.5315 49.8718 6.13114 50.2584 6.8641C50.6449 7.59706 50.8018 8.42941 50.7089 9.25283C50.6357 9.90725 50.7201 10.5697 50.9551 11.1848C51.1902 11.7999 51.5689 12.3499 52.0598 12.7888C52.5507 13.2277 53.1396 13.5428 53.7771 13.7077C54.4146 13.8726 55.0823 13.8826 55.7245 13.7369C56.5326 13.5521 57.3775 13.6149 58.1495 13.9172C58.9214 14.2194 59.5845 14.7471 60.0523 15.4315C60.5201 16.1159 60.771 16.9254 60.7722 17.7544C60.7735 18.5834 60.525 19.3936 60.0593 20.0794C59.6902 20.625 59.4571 21.251 59.3794 21.9051C59.3016 22.5592 59.3815 23.2224 59.6124 23.8393C59.8433 24.4562 60.2185 25.0089 60.7066 25.4512C61.1947 25.8935 61.7815 26.2125 62.4181 26.3817C63.2192 26.5938 63.9379 27.0421 64.4807 27.6682C65.0235 28.2944 65.3653 29.0695 65.4615 29.8926C65.5578 30.7157 65.4041 31.5487 65.0203 32.2832C64.6366 33.0177 64.0406 33.6197 63.3101 34.0108C62.73 34.3224 62.2329 34.7682 61.8603 35.3111C61.4877 35.854 61.2503 36.4781 61.1681 37.1314C61.0858 37.7847 61.161 38.4481 61.3874 39.0664C61.6138 39.6847 61.9848 40.2399 62.4695 40.6856C63.0799 41.2457 63.5077 41.9764 63.6972 42.7829C63.8867 43.5894 63.8292 44.4342 63.5321 45.2076C63.235 45.9809 62.712 46.6469 62.0312 47.119C61.3505 47.5911 60.5435 47.8475 59.7151 47.8547C59.0565 47.8608 58.4088 48.0245 57.8264 48.332C57.2439 48.6396 56.7436 49.0821 56.3671 49.6225C55.9905 50.1629 55.7488 50.7856 55.662 51.4385C55.5753 52.0915 55.646 52.7557 55.8684 53.3757C56.1487 54.1553 56.1879 55.0012 55.9809 55.8034C55.774 56.6057 55.3304 57.327 54.7079 57.8737C54.0854 58.4204 53.3129 58.7672 52.4907 58.8688C51.6685 58.9704 50.8347 58.8223 50.0979 58.4436C49.512 58.1434 48.8627 57.9877 48.2043 57.9895C47.546 57.9912 46.8977 58.1504 46.3134 58.4538C45.7291 58.7572 45.2259 59.1959 44.8457 59.7334C44.4655 60.2709 44.2194 60.8915 44.1279 61.5434C44.0144 62.3653 43.6559 63.1338 43.0991 63.7488C42.5423 64.3638 41.813 64.7968 41.0065 64.9912C40.1999 65.1857 39.3536 65.1325 38.5777 64.8388C37.8019 64.5451 37.1325 64.0243 36.657 63.3445Z" stroke="#ED1C24" stroke-width="2.74975"/>
<path d="M29.4984 41.6704L27.1395 42.9308L28.3918 35.9047L23.2484 30.9564L30.3188 29.9769L33.4398 23.5558L36.5607 29.9769L43.6302 30.9564L38.4867 35.9047L39.7401 42.9308L33.4448 39.5683L32.4149 40.1179L29.4984 41.6704Z" stroke="#ED1C24" stroke-width="2.74975"/>
</svg>
