<svg width="177" height="100" viewBox="0 0 177 100" fill="none" xmlns="http://www.w3.org/2000/svg">
<g clip-path="url(#clip0_1_245)">
<g clip-path="url(#clip1_1_245)">
<g clip-path="url(#clip2_1_245)">
<path d="M41.5585 58.8831L41.532 58.8036L57.2698 44.3983V37.4575H32.0191V44.3983H47.1006L47.1271 44.4646L31.5418 58.8831V65.8239H57.5217V58.8831H41.5585Z" fill="#201515"/>
<path d="M73.0274 36.7947C70.1172 36.7947 67.7439 37.2322 65.9076 38.1139C64.1973 38.8763 62.7588 40.1425 61.7776 41.7335C60.8363 43.3377 60.2463 45.121 60.0474 46.9706L67.7108 48.0445C67.9892 46.4137 68.5394 45.2536 69.3747 44.5708C70.3227 43.8548 71.4828 43.4968 72.6694 43.5499C74.2273 43.5499 75.3543 43.9675 76.0503 44.7962C76.7464 45.6248 77.0978 46.7783 77.0978 48.2964V49.0521H69.7327C65.9806 49.0521 63.2891 49.8808 61.6517 51.5447C60.0143 53.2087 59.1989 55.4029 59.1989 58.1275C59.1989 60.9184 60.0143 63 61.6517 64.3656C63.2891 65.7312 65.3442 66.4074 67.8235 66.4008C70.8994 66.4008 73.2594 65.3467 74.9167 63.232C75.8912 61.9327 76.5939 60.4478 76.9652 58.8634H77.2436L78.2976 65.8042H85.2384V48.2235C85.2384 44.5907 84.2838 41.7733 82.368 39.7779C80.4521 37.7825 77.343 36.7881 73.0407 36.7881L73.0274 36.7947ZM75.4537 58.4656C74.3533 59.3871 72.9081 59.8445 71.1116 59.8445C69.6333 59.8445 68.6057 59.586 68.029 59.0689C67.7506 58.8236 67.5252 58.5186 67.3727 58.1806C67.2202 57.8425 67.1473 57.4712 67.1606 57.0934C67.1473 56.742 67.2003 56.3907 67.3263 56.0592C67.4522 55.7277 67.6379 55.4294 67.8832 55.1775C68.1483 54.9322 68.4599 54.74 68.798 54.614C69.1361 54.4881 69.5007 54.4351 69.8587 54.4549H77.1044V54.9322C77.1176 55.6084 76.9784 56.278 76.6934 56.8879C76.4083 57.4977 75.9841 58.0413 75.4603 58.4656H75.4537Z" fill="#201515"/>
<path d="M127.201 37.4575H119.001V65.8306H127.201V37.4575Z" fill="#201515"/>
<path d="M175.621 37.4575C173.308 37.4575 171.478 38.2729 170.145 39.9103C169.184 41.0837 168.455 42.8206 167.958 45.1209H167.719L166.645 37.4575H159.638V65.8306H167.838V51.2794C167.838 49.4431 168.269 48.0377 169.124 47.0632C169.986 46.0821 171.571 45.5982 173.878 45.5982H176.993V37.4641H175.615L175.621 37.4575Z" fill="#201515"/>
<path d="M151.504 38.3856C149.588 37.2454 147.175 36.6753 144.258 36.6819C139.671 36.6819 136.078 37.9879 133.486 40.5998C130.894 43.2117 129.594 46.818 129.594 51.4054C129.528 54.1831 130.131 56.9342 131.358 59.4268C132.478 61.6476 134.228 63.4905 136.389 64.7235C138.564 65.9764 141.143 66.6062 144.139 66.6128C146.731 66.6128 148.892 66.2151 150.629 65.413C152.26 64.697 153.685 63.57 154.759 62.1514C155.78 60.7526 156.542 59.1815 157.006 57.5109L149.94 55.5354C149.641 56.6226 149.071 57.6104 148.276 58.4125C147.48 59.208 146.141 59.6124 144.265 59.6124C142.031 59.6124 140.374 58.976 139.28 57.6966C138.484 56.7751 137.987 55.4559 137.768 53.7455H157.119C157.199 52.95 157.238 52.2805 157.238 51.7369V49.9735C157.285 47.6003 156.794 45.2469 155.806 43.0924C154.878 41.1301 153.38 39.4861 151.504 38.3923V38.3856ZM144.02 43.4437C147.348 43.4437 149.23 45.0812 149.674 48.356H137.914C138.1 47.2622 138.551 46.2346 139.233 45.3596C140.314 44.0801 141.905 43.4437 144.02 43.4504V43.4437Z" fill="#201515"/>
<path d="M123.191 26.0223C122.574 26.0024 121.958 26.1018 121.381 26.3272C120.804 26.546 120.28 26.8841 119.836 27.315C119.399 27.7459 119.054 28.2696 118.829 28.8397C118.603 29.4098 118.497 30.0263 118.517 30.6428C118.497 31.2593 118.603 31.8825 118.829 32.4592C119.054 33.036 119.399 33.5597 119.836 33.9972C120.274 34.4347 120.798 34.7794 121.374 35.0048C121.951 35.2302 122.568 35.3363 123.191 35.3164C123.807 35.3429 124.417 35.2369 124.994 35.0048C125.564 34.7794 126.088 34.4347 126.519 33.9972C126.949 33.553 127.281 33.0293 127.506 32.4526C127.725 31.8759 127.831 31.2593 127.805 30.6494C127.831 30.0396 127.732 29.423 127.513 28.8529C127.294 28.2828 126.956 27.7591 126.519 27.3282C126.088 26.8973 125.564 26.5526 124.994 26.3338C124.424 26.1151 123.814 26.009 123.197 26.0421L123.191 26.0223Z" fill="#201515"/>
<path d="M106.246 36.6821C103.456 36.6821 101.208 37.5572 99.5111 39.3139C98.2582 40.6133 97.3367 42.5556 96.7467 45.1344H96.4882L95.4143 37.471H88.4072V73.9847H96.6075V58.943H96.9058C97.1578 59.944 97.5091 60.9185 97.9533 61.8533C98.6493 63.3713 99.7829 64.6442 101.215 65.5059C102.7 66.3147 104.37 66.7191 106.061 66.6727C109.495 66.6727 112.107 65.3336 113.903 62.662C115.7 59.9904 116.595 56.2582 116.595 51.4653C116.595 46.6724 115.726 43.2185 113.989 40.6066C112.252 37.9881 109.667 36.6821 106.24 36.6821H106.246ZM107.075 57.2393C106.12 58.6248 104.622 59.3209 102.587 59.3209C101.745 59.3607 100.91 59.1949 100.148 58.8502C99.3852 58.4989 98.709 57.9752 98.1919 57.3122C97.1312 55.9798 96.6009 54.1567 96.6009 51.8365V51.2929C96.6009 48.9395 97.1312 47.1364 98.1919 45.8901C99.2526 44.6372 100.718 44.0207 102.587 44.0339C104.662 44.0339 106.167 44.6902 107.108 46.0094C108.05 47.3286 108.52 49.1649 108.52 51.5183C108.52 53.9512 108.05 55.8604 107.088 57.2393H107.082H107.075Z" fill="#201515"/>
<path d="M28.373 58.8833H0V65.8307H28.373V58.8833Z" fill="#E9521D"/>
</g>
</g>
</g>
<defs>
<clipPath id="clip0_1_245">
<rect width="177" height="100" fill="white"/>
</clipPath>
<clipPath id="clip1_1_245">
<rect width="177" height="100" fill="white"/>
</clipPath>
<clipPath id="clip2_1_245">
<rect width="177" height="99.4382" fill="white" transform="translate(0 0.281006)"/>
</clipPath>
</defs>
</svg>
